<svg width="80" height="80" viewBox="0 0 80 80" fill="none" xmlns="http://www.w3.org/2000/svg">
<g clip-path="url(#clip0_15_54)">
<path d="M40 80C62.0914 80 80 62.0914 80 40C80 17.9086 62.0914 0 40 0C17.9086 0 0 17.9086 0 40C0 62.0914 17.9086 80 40 80Z" fill="#BD2A26" fill-opacity="0.2"/>
<mask id="mask0_15_54" style="mask-type:luminance" maskUnits="userSpaceOnUse" x="20" y="20" width="40" height="40">
<path d="M60 20H20V60H60V20Z" fill="white"/>
</mask>
<g mask="url(#mask0_15_54)">
<path d="M40.0004 60C39.8708 60 39.7411 59.98 39.6163 59.94C35.4202 58.596 31.8477 56.0176 28.998 52.2772C26.7545 49.3324 24.9581 45.6672 23.659 41.3836C21.4675 34.1582 21.4424 27.7215 21.4424 27.4511C21.4424 26.803 21.9347 26.2608 22.5799 26.1984C22.677 26.189 32.4508 25.1857 39.2608 20.2401C39.7017 19.9197 40.2988 19.9201 40.74 20.2403C47.548 25.1857 57.3232 26.189 57.4208 26.1986C58.0656 26.2615 58.5576 26.8035 58.5576 27.4511C58.5576 27.7215 58.5328 34.1582 56.3412 41.3836C55.042 45.6672 53.246 49.3324 51.0024 52.2772C48.1528 56.0176 44.5804 58.596 40.384 59.94C40.2592 59.98 40.1296 60 40.0004 60ZM23.9953 28.5551C24.0999 30.6673 24.5065 35.5316 26.0849 40.7104C28.7785 49.548 33.4594 55.166 40 57.4156C46.556 55.1612 51.2424 49.524 53.9328 40.6532C55.5004 35.4842 55.9024 30.6568 56.0056 28.5552C53.186 28.1439 45.8828 26.7517 40 22.7935C34.1166 26.7513 26.8149 28.1438 23.9953 28.5551Z" fill="#BD2A26"/>
<path d="M44.254 45.4249C43.932 45.4249 43.61 45.3021 43.3644 45.0561L34.8564 36.5481C34.365 36.0567 34.365 35.2599 34.8564 34.7683C35.3481 34.277 36.1447 34.2772 36.6362 34.7683L45.144 43.2765C45.6356 43.7681 45.6356 44.5649 45.144 45.0561C44.8984 45.3021 44.5764 45.4249 44.254 45.4249Z" fill="#BD2A26"/>
<path d="M35.7461 45.4248C35.4239 45.4248 35.102 45.302 34.8562 45.0564C34.3648 44.5648 34.3648 43.768 34.8562 43.2764L43.364 34.7682C43.8556 34.277 44.6524 34.277 45.144 34.7682C45.6352 35.2596 45.6352 36.0565 45.144 36.548L36.6361 45.0564C36.3901 45.302 36.0682 45.4248 35.7461 45.4248Z" fill="#BD2A26"/>
</g>
</g>
<defs>
<clipPath id="clip0_15_54">
<rect width="80" height="80" fill="white"/>
</clipPath>
</defs>
</svg>
