<svg width="80" height="80" viewBox="0 0 80 80" fill="none" xmlns="http://www.w3.org/2000/svg">
<g clip-path="url(#clip0_15_67)">
<path d="M40 80C62.0914 80 80 62.0914 80 40C80 17.9086 62.0914 0 40 0C17.9086 0 0 17.9086 0 40C0 62.0914 17.9086 80 40 80Z" fill="#BD2A26" fill-opacity="0.2"/>
<path d="M33.4836 32.2998H36.6984V34.5308H35.4968C35.1406 34.5308 34.8517 34.8196 34.8517 35.1759C34.8517 35.5322 35.1406 35.821 35.4968 35.821H44.5028C44.8592 35.821 45.148 35.5322 45.148 35.1759C45.148 34.8196 44.8592 34.5308 44.5028 34.5308H43.3012V32.2998H46.5164C47.7832 32.2998 48.8136 31.2693 48.8136 30.0025V22.2997C48.8136 21.033 47.7832 20.0024 46.5164 20.0024H33.4836C32.2168 20.0024 31.1863 21.033 31.1863 22.2997V30.0025C31.1863 31.2693 32.2169 32.2998 33.4836 32.2998ZM42.0112 34.5308H37.9886V32.2998H42.0112V34.5308ZM32.4764 22.2997C32.4764 21.7444 32.9282 21.2926 33.4836 21.2926H46.5164C47.0716 21.2926 47.5236 21.7444 47.5236 22.2997V30.0025C47.5236 30.5578 47.0716 31.0096 46.5164 31.0096H33.4836C32.9282 31.0096 32.4764 30.5578 32.4764 30.0025V22.2997Z" fill="#BD2A26"/>
<path d="M35.33 44.1788H22.2973C21.0305 44.1788 20 45.2096 20 46.4764V54.1792C20 55.4456 21.0305 56.4764 22.2973 56.4764H25.5121V58.7072H24.3105C23.9543 58.7072 23.6654 58.996 23.6654 59.3524C23.6654 59.7088 23.9543 59.9976 24.3105 59.9976H33.3166C33.6728 59.9976 33.9616 59.7088 33.9616 59.3524C33.9616 58.996 33.6728 58.7072 33.3166 58.7072H32.1151V56.4764H35.3299C36.5967 56.4764 37.6272 55.4456 37.6272 54.1792V46.4764C37.6272 45.2096 36.5967 44.1788 35.33 44.1788ZM30.825 58.7072H26.8023V56.4764H30.825V58.7072ZM36.3371 54.1792C36.3371 54.7344 35.8854 55.186 35.33 55.186H22.2973C21.7419 55.186 21.2902 54.7344 21.2902 54.1792V46.4764C21.2902 45.9208 21.7419 45.4692 22.2973 45.4692H35.33C35.8854 45.4692 36.3371 45.9208 36.3371 46.4764V54.1792Z" fill="#BD2A26"/>
<path d="M57.7028 44.1788H44.67C43.4032 44.1788 42.3728 45.2096 42.3728 46.4764V54.1792C42.3728 55.4456 43.4032 56.4764 44.67 56.4764H47.8848V58.7072H46.6832C46.3268 58.7072 46.038 58.996 46.038 59.3524C46.038 59.7088 46.3268 59.9976 46.6832 59.9976H55.6892C56.0456 59.9976 56.3344 59.7088 56.3344 59.3524C56.3344 58.996 56.0456 58.7072 55.6892 58.7072H54.488V56.4764H57.7028C58.9696 56.4764 60 55.4456 60 54.1792V46.4764C60 45.2096 58.9696 44.1788 57.7028 44.1788ZM53.1976 58.7072H49.1748V56.4764H53.1976V58.7072ZM58.71 54.1792C58.71 54.7344 58.258 55.186 57.7028 55.186H44.67C44.1148 55.186 43.6628 54.7344 43.6628 54.1792V46.4764C43.6628 45.9208 44.1148 45.4692 44.67 45.4692H57.7028C58.258 45.4692 58.7096 45.9208 58.7096 46.4764L58.71 54.1792Z" fill="#BD2A26"/>
<path d="M50.5412 42.2436C50.5412 42.6 50.83 42.8888 51.1864 42.8888C51.5428 42.8888 51.8316 42.6 51.8316 42.2436V39.9999C51.8316 39.6436 51.5428 39.3548 51.1864 39.3548H40.6452V37.7562C40.6452 37.3998 40.3564 37.1111 40 37.1111C39.6437 37.1111 39.3549 37.3998 39.3549 37.7562V39.3548H28.8137C28.4574 39.3548 28.1686 39.6436 28.1686 39.9999V42.2436C28.1686 42.6 28.4574 42.8888 28.8137 42.8888C29.1699 42.8888 29.4587 42.6 29.4587 42.2436V40.6452H50.5412V42.2436Z" fill="#BD2A26"/>
</g>
<defs>
<clipPath id="clip0_15_67">
<rect width="80" height="80" fill="white"/>
</clipPath>
</defs>
</svg>
