<svg width="80" height="80" viewBox="0 0 80 80" fill="none" xmlns="http://www.w3.org/2000/svg">
<g clip-path="url(#clip0_15_77)">
<path d="M40 80C62.0914 80 80 62.0914 80 40C80 17.9086 62.0914 0 40 0C17.9086 0 0 17.9086 0 40C0 62.0914 17.9086 80 40 80Z" fill="#BD2A26" fill-opacity="0.2"/>
<path d="M40.0001 20C29.0239 20 20.4257 24.4859 20.4257 30.2127C20.4257 35.9395 29.0239 40.4256 40.0001 40.4256C50.9765 40.4256 59.5745 35.9396 59.5745 30.2128C59.5745 24.486 50.9765 20 40.0001 20ZM40.0001 38.7234C30.3122 38.7234 22.1277 34.8259 22.1277 30.2128C22.1277 25.5997 30.3122 21.7021 40.0001 21.7021C49.6881 21.7021 57.8725 25.5996 57.8725 30.2127C57.8725 34.8258 49.6881 38.7234 40.0001 38.7234Z" fill="#BD2A26"/>
<path d="M58.7232 35.3192C58.2532 35.3192 57.8724 35.7003 57.8724 36.1703C57.8724 40.7833 49.688 44.6809 39.9999 44.6809C30.3121 44.6809 22.1276 40.7833 22.1276 36.1703C22.1276 35.7003 21.7465 35.3192 21.2765 35.3192C20.8065 35.3192 20.4254 35.7003 20.4254 36.1703C20.4254 41.8973 29.0237 46.3829 39.9999 46.3829C50.976 46.3829 59.5744 41.8973 59.5744 36.1703C59.5744 35.7003 59.1932 35.3192 58.7232 35.3192Z" fill="#BD2A26"/>
<path d="M58.7232 42.1276C58.2532 42.1276 57.8724 42.5088 57.8724 42.9788C57.8724 47.592 49.688 51.4892 39.9999 51.4892C30.3121 51.4892 22.1276 47.592 22.1276 42.9788C22.1276 42.5088 21.7465 42.1276 21.2765 42.1276C20.8065 42.1276 20.4254 42.5088 20.4254 42.9788C20.4254 48.7056 29.0237 53.1916 39.9999 53.1916C50.976 53.1916 59.5744 48.7056 59.5744 42.9788C59.5744 42.5088 59.1932 42.1276 58.7232 42.1276Z" fill="#BD2A26"/>
<path d="M58.7232 48.936C58.2532 48.936 57.8724 49.3172 57.8724 49.7872C57.8724 54.4004 49.688 58.298 39.9999 58.298C30.3121 58.298 22.1276 54.4004 22.1276 49.7872C22.1276 49.3172 21.7465 48.936 21.2765 48.936C20.8065 48.936 20.4254 49.3172 20.4254 49.7872C20.4255 55.514 29.0238 60 39.9999 60C50.976 60 59.5744 55.514 59.5744 49.7872C59.5744 49.3172 59.1932 48.936 58.7232 48.936Z" fill="#BD2A26"/>
</g>
<defs>
<clipPath id="clip0_15_77">
<rect width="80" height="80" fill="white"/>
</clipPath>
</defs>
</svg>
