<svg width="320" height="320" viewBox="0 0 320 320" fill="none" xmlns="http://www.w3.org/2000/svg">
<g clip-path="url(#clip0_15_473)">
<mask id="mask0_15_473" style="mask-type:luminance" maskUnits="userSpaceOnUse" x="0" y="0" width="320" height="320">
<path d="M320 0H0V320H320V0Z" fill="white"/>
</mask>
<g mask="url(#mask0_15_473)">
<path d="M11.3662 138.639L103.427 230.765L101.242 232.949L9.18018 140.824L11.3662 138.639Z" fill="#BD2A26"/>
<path d="M131.569 104.939L134.575 105.67L103.785 232.221L100.78 231.489L131.569 104.939Z" fill="#BD2A26"/>
<path d="M103.368 235.566L50.8275 152.462L53.4397 150.81L100.451 225.169L101.923 137.208L105.016 137.259L103.368 235.566Z" fill="#BD2A26"/>
<path d="M56.8507 69.7555C56.8507 69.7555 0.568587 82.72 8.77472 146.556C8.77472 146.556 32.0935 134.925 52.7946 159.076C52.7946 159.076 52.4996 133.962 73.2326 128.145C93.9622 122.329 106.774 143.932 106.774 143.932C111.894 112.536 137.857 110.34 137.857 110.34C111.658 51.5512 56.8507 69.7555 56.8507 69.7555Z" fill="#BD2A26"/>
<path d="M188.854 108.948L210.262 237.417L207.213 237.925L185.805 109.457L188.854 108.948Z" fill="#2D7115"/>
<path d="M306.268 151.354L308.289 153.695L209.706 238.81L207.685 236.468L306.268 151.354Z" fill="#2D7115"/>
<path d="M207.423 241.289L212.941 143.125L216.027 143.298L211.089 231.133L263.392 160.395L265.878 162.233L207.423 241.289Z" fill="#2D7115"/>
<path d="M265.894 79.3074C265.894 79.3074 212.552 57.1613 182.145 113.886C182.145 113.886 207.882 117.967 210.7 149.651C210.7 149.651 225.05 129.039 245.304 136.349C265.556 143.659 263.434 168.685 263.434 168.685C285.84 146.107 308.248 159.404 308.248 159.404C321.078 96.3327 265.894 79.3074 265.894 79.3074Z" fill="#4C9930"/>
<mask id="mask1_15_473" style="mask-type:luminance" maskUnits="userSpaceOnUse" x="56" y="188" width="59" height="52">
<path d="M103.352 188.008L56.9631 201.023L67.8755 239.918L114.265 226.903L103.352 188.008Z" fill="white"/>
</mask>
<g mask="url(#mask1_15_473)">
<path d="M80.1537 194.517L80.0909 195.49L87.305 221.202L87.689 221.375L99.945 210.327L80.1537 194.517Z" fill="#9E99A2"/>
<path d="M80.1536 194.517L71.4746 218.314L87.689 221.375L84.1876 208.895L80.1536 194.517Z" fill="white"/>
<path d="M88.3232 223.635L88.1978 223.863L90.768 233.023L91.063 233.403L100.588 212.588L88.3232 223.635Z" fill="#A4A4A4"/>
<path d="M91.0637 233.402L88.3233 223.635L72.1095 220.577L91.0637 233.402Z" fill="white"/>
<path d="M87.6891 221.376L99.9451 210.327L84.1876 208.896L87.6891 221.376Z" fill="#141414"/>
<path d="M71.4746 218.314L87.689 221.376L84.1876 208.896L71.4746 218.314Z" fill="#393939"/>
</g>
<path d="M79.1392 257.185L112.749 255.662L101.625 223.91L68.0148 225.433L79.1392 257.185Z" fill="#455A64"/>
<path d="M88.4685 224.506L99.593 256.258L92.8672 256.566L81.7434 224.813L88.4685 224.506Z" fill="#37474F"/>
<path d="M112.749 255.662L130.737 229.042L119.612 197.291L101.625 223.91L112.749 255.662Z" fill="#263238"/>
<path d="M101.625 223.91L118.465 198.034L94.3335 198.435L119.612 197.291L101.625 223.91Z" fill="#455A64"/>
<g opacity="0.8">
<path opacity="0.8" d="M108.699 200.395C108.714 200.406 108.727 200.42 108.737 200.438C108.746 200.456 108.751 200.477 108.752 200.498C108.753 200.521 108.749 200.544 108.742 200.567C108.735 200.589 108.724 200.612 108.709 200.632L106.36 204.107C106.347 204.128 106.331 204.146 106.313 204.162C106.294 204.177 106.274 204.189 106.253 204.196C106.232 204.203 106.211 204.207 106.191 204.205C106.171 204.203 106.153 204.196 106.137 204.185C106.105 204.164 106.085 204.126 106.082 204.081C106.079 204.036 106.093 203.987 106.122 203.945L108.492 200.437C108.522 200.405 108.559 200.384 108.597 200.376C108.635 200.369 108.671 200.375 108.699 200.395Z" fill="#E0E0E0"/>
<path opacity="0.8" d="M107.41 203.058L107.456 203.09C107.475 203.126 107.478 203.172 107.464 203.218C107.451 203.264 107.422 203.307 107.384 203.337L106.088 204.324L106.097 203.289C106.095 203.268 106.098 203.245 106.104 203.222C106.111 203.199 106.122 203.177 106.135 203.157C106.148 203.137 106.165 203.119 106.184 203.104C106.202 203.09 106.223 203.079 106.244 203.073C106.285 203.062 106.324 203.068 106.355 203.089C106.386 203.11 106.406 203.145 106.411 203.186L106.41 203.682L107.239 203.048C107.269 203.031 107.302 203.024 107.332 203.026C107.362 203.028 107.389 203.039 107.41 203.058Z" fill="#E0E0E0"/>
<path opacity="0.8" d="M107.03 200.461C107.046 200.472 107.059 200.487 107.068 200.505C107.078 200.523 107.083 200.543 107.085 200.566C107.086 200.588 107.083 200.611 107.076 200.635C107.07 200.658 107.059 200.68 107.045 200.701L104.697 204.177C104.668 204.219 104.628 204.25 104.586 204.264C104.543 204.278 104.5 204.274 104.468 204.252C104.436 204.23 104.416 204.193 104.413 204.147C104.41 204.102 104.424 204.054 104.452 204.012L106.801 200.536C106.829 200.495 106.869 200.463 106.912 200.449C106.955 200.435 106.997 200.44 107.03 200.461Z" fill="#E0E0E0"/>
<path opacity="0.8" d="M105.741 203.125L105.792 203.16C105.801 203.177 105.807 203.197 105.808 203.22C105.809 203.241 105.806 203.264 105.799 203.288C105.791 203.311 105.78 203.332 105.766 203.353C105.752 203.373 105.734 203.39 105.715 203.404L104.428 204.387V203.355C104.427 203.334 104.429 203.311 104.435 203.288C104.442 203.266 104.452 203.243 104.466 203.223C104.479 203.203 104.496 203.185 104.515 203.171C104.534 203.156 104.554 203.145 104.575 203.139C104.596 203.132 104.617 203.129 104.637 203.132C104.658 203.134 104.676 203.14 104.692 203.151C104.708 203.162 104.722 203.177 104.731 203.195C104.74 203.213 104.746 203.234 104.747 203.256L104.741 203.748L105.579 203.112C105.608 203.094 105.64 203.087 105.668 203.089C105.697 203.092 105.722 203.104 105.741 203.125Z" fill="#E0E0E0"/>
</g>
<g opacity="0.8">
<path opacity="0.8" d="M113.496 200.207C113.542 200.238 113.579 200.282 113.602 200.337C113.622 200.409 113.622 200.49 113.603 200.573C113.584 200.656 113.546 200.736 113.492 200.806L113.204 201.233C113.191 201.254 113.174 201.272 113.156 201.288C113.138 201.303 113.117 201.315 113.096 201.322C113.076 201.329 113.055 201.332 113.035 201.33C113.015 201.328 112.996 201.322 112.98 201.311C112.948 201.289 112.928 201.252 112.925 201.206C112.922 201.162 112.936 201.113 112.964 201.071L113.252 200.645C113.283 200.618 113.306 200.584 113.319 200.547C113.319 200.547 113.279 200.519 113.238 200.492C113.103 200.53 112.971 200.6 112.851 200.694C112.73 200.79 112.624 200.908 112.539 201.042L111.339 202.819C111.325 202.84 111.308 202.858 111.29 202.872C111.27 202.886 111.25 202.897 111.229 202.904C111.208 202.91 111.187 202.912 111.167 202.909C111.147 202.906 111.13 202.899 111.115 202.887C111.083 202.867 111.064 202.83 111.062 202.787C111.059 202.744 111.073 202.698 111.099 202.657L112.3 200.88C112.419 200.691 112.571 200.525 112.744 200.397C112.918 200.268 113.107 200.18 113.297 200.14C113.371 200.145 113.439 200.168 113.496 200.207Z" fill="#E0E0E0"/>
<path opacity="0.8" d="M113.798 202.493L113.616 202.763C113.124 203.431 112.52 203.997 111.851 204.415C111.183 204.833 110.468 205.091 109.767 205.167C109.489 205.233 109.219 205.206 108.995 205.089C108.769 204.972 108.6 204.771 108.51 204.514C108.419 204.257 108.412 203.955 108.49 203.651C108.566 203.346 108.724 203.053 108.94 202.813L109.016 202.701L113.798 202.493ZM109.061 204.643C109.283 204.773 109.546 204.829 109.826 204.806C110.427 204.74 111.038 204.534 111.619 204.199C112.199 203.864 112.735 203.41 113.19 202.867L109.121 203.05C108.98 203.24 108.877 203.455 108.822 203.677C108.767 203.898 108.762 204.118 108.806 204.317C108.86 204.454 108.948 204.565 109.061 204.643Z" fill="#E0E0E0"/>
</g>
<path d="M88.1779 224.519L99.3075 256.275L92.5863 256.576L81.4567 224.82L88.1779 224.519Z" fill="#BD2A26"/>
<path opacity="0.5" d="M99.3075 256.275L92.8435 256.196L81.4567 224.821L92.5863 256.576L99.3075 256.275Z" fill="white"/>
<mask id="mask2_15_473" style="mask-type:luminance" maskUnits="userSpaceOnUse" x="177" y="179" width="61" height="58">
<path d="M237.712 196.052L192.394 179.694L177.878 219.908L223.197 236.266L237.712 196.052Z" fill="white"/>
</mask>
<g mask="url(#mask2_15_473)">
<path d="M203.786 228.475C193.16 224.64 187.771 212.899 191.651 202.152C195.53 191.405 207.252 185.841 217.801 189.649C228.349 193.456 233.816 205.225 229.937 215.972C226.058 226.719 214.335 232.283 203.786 228.475Z" fill="#FFDD2B"/>
<path d="M203.536 229.169C192.519 225.192 186.865 212.964 190.869 201.87C194.874 190.777 207.034 184.979 218.051 188.956C229.069 192.932 234.723 205.16 230.718 216.254C226.714 227.347 214.475 233.117 203.536 229.169ZM217.551 190.342C207.393 186.675 196.161 192.104 192.432 202.435C188.703 212.765 193.879 224.116 204.036 227.782C214.194 231.449 225.427 226.02 229.156 215.69C232.884 205.359 227.631 193.98 217.551 190.342Z" fill="#5B5A5B"/>
<path d="M191.651 202.152C195.229 192.238 205.527 186.707 215.407 188.942C214.651 188.59 213.894 188.239 213.113 187.957C202.486 184.121 190.842 189.713 186.963 200.46C183.083 211.207 188.55 222.976 199.098 226.783C199.88 227.066 200.686 227.278 201.492 227.491C192.385 222.872 188.072 212.067 191.651 202.152Z" fill="#FFDD2B"/>
<path d="M198.848 227.477C187.831 223.5 182.177 211.272 186.181 200.178C190.186 189.085 202.346 183.286 213.363 187.263C214.145 187.545 214.901 187.896 215.736 188.276L215.235 189.663C205.615 187.444 195.836 193.005 192.432 202.435C189.028 211.864 193.079 222.417 201.821 226.826L201.32 228.213C200.436 227.972 199.629 227.759 198.848 227.477ZM209.403 187.715C200.31 186.235 191.047 191.59 187.744 200.742C184.44 209.894 188.148 219.932 196.167 224.628C190.208 218.872 187.941 209.983 190.869 201.87C193.797 193.758 201.219 188.365 209.403 187.715Z" fill="#5B5A5B"/>
<path d="M193.848 221.754L189.16 220.061C188.691 219.893 188.479 219.502 188.629 219.086C188.78 218.67 189.192 218.506 189.661 218.675L194.349 220.367C194.818 220.536 195.03 220.927 194.88 221.343C194.73 221.759 194.239 221.895 193.848 221.754ZM191.349 216.933L186.661 215.241C186.192 215.072 185.98 214.682 186.13 214.266C186.28 213.85 186.692 213.685 187.162 213.855L191.85 215.547C192.319 215.716 192.531 216.106 192.381 216.522C192.23 216.938 191.74 217.075 191.349 216.933ZM190.194 211.814L185.506 210.122C185.037 209.953 184.825 209.563 184.975 209.147C185.125 208.731 185.538 208.566 186.006 208.735L190.694 210.428C191.164 210.597 191.376 210.987 191.226 211.403C191.076 211.82 190.663 211.984 190.194 211.814ZM190.195 207.896L185.507 206.204C185.038 206.035 184.826 205.645 184.976 205.229C185.126 204.813 185.539 204.648 186.008 204.817L190.696 206.51C191.165 206.679 191.377 207.069 191.227 207.485C191.077 207.901 190.664 208.066 190.195 207.896ZM190.9 204.232L186.29 202.568C185.821 202.399 185.608 202.009 185.759 201.593C185.908 201.177 186.321 201.013 186.79 201.181L191.4 202.845C191.869 203.015 192.081 203.405 191.932 203.821C191.781 204.237 191.29 204.373 190.9 204.232ZM192.229 200.794L187.541 199.101C187.072 198.933 186.86 198.542 187.01 198.126C187.16 197.71 187.572 197.546 188.042 197.715L192.73 199.407C193.199 199.576 193.411 199.967 193.261 200.383C193.11 200.799 192.62 200.935 192.229 200.794ZM194.184 197.581L189.496 195.889C189.027 195.72 188.814 195.329 188.964 194.913C189.114 194.497 189.527 194.333 189.996 194.502L194.684 196.195C195.153 196.364 195.366 196.754 195.215 197.17C195.065 197.586 194.574 197.722 194.184 197.581ZM196.764 194.594L192.075 192.902C191.606 192.732 191.394 192.342 191.544 191.926C191.694 191.51 192.107 191.345 192.575 191.515L197.264 193.207C197.732 193.376 197.945 193.766 197.795 194.182C197.645 194.598 197.232 194.763 196.764 194.594ZM201.234 191.505L196.546 189.813C196.077 189.644 195.864 189.254 196.015 188.838C196.165 188.422 196.577 188.257 197.046 188.426L201.734 190.118C202.204 190.288 202.416 190.678 202.266 191.094C202.116 191.51 201.625 191.647 201.234 191.505ZM206.627 189.533L202.017 187.869C201.548 187.701 201.335 187.31 201.485 186.894C201.636 186.478 202.048 186.314 202.517 186.483L207.127 188.147C207.596 188.316 207.809 188.706 207.658 189.122C207.508 189.539 207.017 189.674 206.627 189.533Z" fill="#5B5A5B"/>
<path d="M205.163 224.662C204.616 224.465 204.069 224.267 203.547 224.001C203.181 223.79 202.994 223.33 203.119 222.984C203.322 222.666 203.813 222.529 204.203 222.671C204.648 222.909 205.116 223.078 205.663 223.275C206.132 223.445 206.344 223.835 206.195 224.251C206.044 224.667 205.631 224.831 205.163 224.662ZM209.97 225.535C209.658 225.423 209.395 225.171 209.417 224.865C209.386 224.463 209.77 224.131 210.211 224.134C210.73 224.164 211.195 224.097 211.739 224.058C212.205 223.991 212.624 224.299 212.655 224.702C212.765 225.133 212.458 225.493 212.017 225.491C211.473 225.53 210.851 225.54 210.333 225.51C210.204 225.62 210.126 225.592 209.97 225.535ZM199.597 221.243C199.441 221.186 199.363 221.158 199.231 221.032C198.837 220.655 198.468 220.209 198.075 219.831C197.759 219.482 197.831 219.038 198.191 218.776C198.55 218.514 199.044 218.614 199.36 218.962C199.675 219.312 200.044 219.758 200.385 220.038C200.726 220.318 200.707 220.859 200.372 221.052C200.194 221.302 199.909 221.355 199.597 221.243ZM216.203 224.415C215.969 224.331 215.837 224.205 215.731 224.01C215.519 223.62 215.669 223.204 216.081 223.039C216.494 222.875 217.01 222.669 217.448 222.435C217.782 222.242 218.354 222.37 218.566 222.761C218.804 223.082 218.707 223.595 218.294 223.76C217.857 223.994 217.316 224.269 216.825 224.405C216.619 224.487 216.437 224.5 216.203 224.415ZM196.082 216.056C195.848 215.971 195.638 215.817 195.557 215.553C195.37 215.093 195.129 214.536 195.044 214.035C194.936 213.604 195.163 213.217 195.629 213.149C196.095 213.082 196.539 213.321 196.648 213.752C196.836 214.212 196.945 214.643 197.132 215.103C197.345 215.492 197.091 215.949 196.704 216.045C196.497 216.127 196.238 216.112 196.082 216.056ZM221.268 221.149C221.19 221.121 221.034 221.065 220.98 220.968C220.639 220.688 220.634 220.216 220.915 219.925C221.221 219.565 221.606 219.234 221.912 218.874C222.194 218.584 222.659 218.517 223.078 218.825C223.419 219.105 223.528 219.536 223.222 219.896C222.89 220.324 222.506 220.656 222.199 221.016C221.943 221.236 221.58 221.263 221.268 221.149ZM194.84 210.2C194.527 210.087 194.289 209.766 194.312 209.46C194.305 208.988 194.324 208.447 194.343 207.905C194.39 207.53 194.774 207.199 195.19 207.27C195.606 207.342 196 207.719 195.953 208.094C195.959 208.566 195.887 209.01 195.893 209.483C195.924 209.886 195.54 210.218 195.099 210.215C194.996 210.256 194.918 210.228 194.84 210.2ZM224.679 216.347C224.211 216.178 224.023 215.718 224.173 215.302C224.323 214.886 224.552 214.498 224.702 214.082C224.852 213.666 225.265 213.502 225.734 213.671C226.202 213.84 226.415 214.23 226.265 214.646C226.09 215.131 225.939 215.547 225.686 216.005C225.561 216.351 225.07 216.488 224.679 216.347ZM195.776 204.425C195.307 204.256 195.094 203.866 195.245 203.45C195.419 202.964 195.595 202.479 195.848 202.022C195.999 201.606 196.49 201.469 196.933 201.708C197.402 201.877 197.589 202.337 197.361 202.724C197.211 203.14 196.957 203.597 196.808 204.013C196.657 204.43 196.244 204.595 195.776 204.425ZM226.163 210.77C225.85 210.657 225.534 210.308 225.581 209.933C225.575 209.46 225.647 209.016 225.641 208.544C225.61 208.141 225.995 207.809 226.435 207.812C226.876 207.814 227.27 208.191 227.301 208.594C227.307 209.067 227.288 209.608 227.269 210.15C227.222 210.525 226.838 210.856 226.422 210.785C226.266 210.728 226.163 210.77 226.163 210.77ZM198.744 199.384C198.666 199.355 198.587 199.327 198.534 199.229C198.194 198.95 198.084 198.519 198.391 198.159C198.697 197.8 199.107 197.399 199.413 197.039C199.695 196.749 200.213 196.779 200.554 197.059C200.895 197.339 200.901 197.811 200.619 198.102C200.235 198.433 199.928 198.792 199.622 199.152C199.419 199.471 199.056 199.496 198.744 199.384ZM225.489 204.806C225.255 204.721 225.07 204.498 224.964 204.303C224.777 203.843 224.667 203.412 224.48 202.952C224.267 202.563 224.521 202.105 224.909 202.01C225.322 201.846 225.843 202.112 225.978 202.474C226.165 202.934 226.406 203.49 226.49 203.991C226.599 204.422 226.371 204.81 225.905 204.877C225.723 204.89 225.645 204.862 225.489 204.806ZM203.439 195.671C203.283 195.615 203.152 195.489 203.021 195.363C202.783 195.043 202.881 194.529 203.293 194.364C203.731 194.13 204.271 193.855 204.762 193.719C205.175 193.555 205.644 193.724 205.856 194.114C206.068 194.504 205.919 194.92 205.506 195.085C205.093 195.249 204.577 195.455 204.139 195.689C203.933 195.771 203.674 195.756 203.439 195.671ZM222.49 199.413C222.333 199.357 222.202 199.231 222.149 199.133C221.834 198.784 221.465 198.338 221.124 198.058C220.784 197.778 220.803 197.236 221.137 197.044C221.419 196.753 221.937 196.784 222.253 197.133C222.647 197.51 223.016 197.957 223.409 198.334C223.725 198.683 223.653 199.128 223.293 199.389C223.009 199.443 222.724 199.498 222.49 199.413ZM209.457 193.925C209.144 193.812 208.96 193.589 208.879 193.325C208.77 192.893 209.076 192.534 209.517 192.536C210.061 192.497 210.683 192.486 211.202 192.517C211.642 192.52 212.036 192.897 212.067 193.3C212.099 193.703 211.714 194.034 211.273 194.032C210.754 194.001 210.211 194.04 209.745 194.107C209.691 194.01 209.535 193.953 209.457 193.925ZM217.384 195.454L217.306 195.426C216.861 195.187 216.393 195.018 215.924 194.849C215.455 194.68 215.243 194.289 215.393 193.873C215.543 193.457 215.956 193.293 216.424 193.462C216.971 193.659 217.519 193.857 218.04 194.123C218.406 194.334 218.515 194.765 218.39 195.112C218.187 195.43 217.774 195.595 217.384 195.454Z" fill="#5B5A5B"/>
<path d="M216.66 209.691C218.186 209.379 219.211 208.496 219.737 207.04C220.187 205.792 220.094 204.582 219.457 203.412C218.82 202.242 217.72 201.374 216.235 200.838L208.265 197.962C207.796 197.793 207.384 197.957 207.233 198.373C207.084 198.789 207.296 199.18 207.764 199.348L209.562 199.997L204.506 214.003L202.709 213.354C202.241 213.185 201.828 213.349 201.677 213.765C201.528 214.181 201.74 214.572 202.209 214.74L211.116 217.956C212.757 218.548 214.236 218.612 215.473 218.118C216.711 217.624 217.581 216.684 218.056 215.367C219.011 212.968 218.467 211.048 216.66 209.691ZM216.408 208.189C215.583 208.518 214.676 208.582 213.66 208.216L208.972 206.524L211.124 200.561L215.656 202.197C216.75 202.592 217.51 203.18 217.935 203.96C218.359 204.74 218.422 205.546 218.121 206.378C217.821 207.21 217.233 207.86 216.408 208.189ZM208.55 207.939L214.097 209.941C215.27 210.364 216.107 210.98 216.507 211.83C216.932 212.61 217.022 213.583 216.647 214.623C216.271 215.663 215.658 216.382 214.755 216.683C213.93 217.012 212.867 217.02 211.695 216.597L206.147 214.595L208.55 207.939Z" fill="#5B5A5B"/>
<path d="M210.198 213.158L203.167 210.619C202.776 210.478 202.51 209.99 202.636 209.644C202.785 209.228 203.276 209.092 203.667 209.233L210.699 211.771C211.09 211.912 211.38 212.33 211.23 212.746C211.105 213.093 210.589 213.298 210.198 213.158Z" fill="#5B5A5B"/>
</g>
<path d="M177.994 246.15L208.81 259.654L212.882 226.257L182.067 212.753L177.994 246.15Z" fill="#455A64"/>
<path d="M200.82 220.971L196.748 254.368L190.58 251.668L194.653 218.271L200.82 220.971Z" fill="#37474F"/>
<path d="M208.81 259.654L236.719 243.741L240.791 210.344L212.883 226.257L208.81 259.654Z" fill="#263238"/>
<path d="M194.653 218.271L200.105 215.162L200.264 215.729L201.349 215.697L201.505 216.274L202.576 216.235L202.732 216.811L203.813 216.775L203.968 217.351L205.05 217.314L205.208 217.896L206.28 217.858L200.821 220.971L194.653 218.271Z" fill="#263238"/>
<path d="M212.883 226.257L239.434 210.504L217.615 200.186L240.792 210.344L212.883 226.257Z" fill="#455A64"/>
<g opacity="0.8">
<path opacity="0.8" d="M229.631 208.299C229.64 208.316 229.645 208.335 229.645 208.355C229.645 208.375 229.641 208.396 229.632 208.416C229.624 208.436 229.61 208.456 229.594 208.473C229.577 208.49 229.557 208.505 229.535 208.516L225.891 210.594C225.87 210.607 225.848 210.617 225.824 210.622C225.801 210.628 225.777 210.629 225.756 210.626C225.734 210.624 225.713 210.617 225.697 210.607C225.679 210.596 225.666 210.582 225.656 210.566C225.637 210.532 225.636 210.489 225.653 210.447C225.67 210.406 225.704 210.369 225.748 210.344L229.427 208.246C229.468 208.231 229.51 208.228 229.548 208.237C229.585 208.248 229.614 208.269 229.631 208.299Z" fill="#E0E0E0"/>
<path opacity="0.8" d="M227.296 210.118L227.324 210.166C227.324 210.207 227.307 210.25 227.274 210.285C227.242 210.321 227.197 210.347 227.15 210.357L225.551 210.668L226.017 209.745C226.025 209.724 226.037 209.705 226.053 209.687C226.069 209.67 226.088 209.654 226.109 209.642C226.131 209.631 226.153 209.622 226.177 209.617C226.2 209.612 226.223 209.611 226.244 209.615C226.286 209.624 226.318 209.646 226.337 209.679C226.355 209.711 226.358 209.751 226.344 209.791L226.124 210.235L227.148 210.033C227.182 210.032 227.214 210.039 227.241 210.054C227.267 210.069 227.286 210.091 227.296 210.118Z" fill="#E0E0E0"/>
<path opacity="0.8" d="M228.104 207.621C228.114 207.637 228.119 207.656 228.12 207.677C228.12 207.697 228.116 207.718 228.108 207.739C228.099 207.759 228.086 207.779 228.07 207.797C228.054 207.815 228.034 207.83 228.012 207.843L224.368 209.921C224.325 209.946 224.275 209.956 224.23 209.949C224.186 209.943 224.15 209.921 224.13 209.887C224.111 209.853 224.109 209.81 224.127 209.768C224.144 209.727 224.179 209.689 224.222 209.665L227.866 207.587C227.91 207.562 227.96 207.551 228.005 207.558C228.049 207.564 228.085 207.587 228.104 207.621Z" fill="#E0E0E0"/>
<path opacity="0.8" d="M225.77 209.439L225.8 209.493C225.801 209.512 225.797 209.534 225.788 209.554C225.779 209.574 225.766 209.594 225.75 209.611C225.734 209.628 225.714 209.643 225.692 209.655C225.67 209.666 225.647 209.674 225.624 209.678L224.035 209.991L224.491 209.066C224.499 209.045 224.511 209.026 224.527 209.008C224.543 208.991 224.562 208.975 224.583 208.963C224.604 208.951 224.627 208.943 224.65 208.938C224.673 208.933 224.696 208.933 224.718 208.936C224.74 208.939 224.76 208.947 224.778 208.957C224.795 208.968 224.808 208.983 224.818 208.999C224.828 209.016 224.833 209.035 224.833 209.055C224.834 209.076 224.83 209.097 224.821 209.118L224.598 209.556L225.631 209.356C225.665 209.354 225.696 209.36 225.721 209.375C225.745 209.39 225.763 209.413 225.77 209.439Z" fill="#E0E0E0"/>
</g>
<g opacity="0.8">
<path opacity="0.8" d="M234.016 210.254C234.044 210.302 234.056 210.358 234.054 210.417C234.04 210.49 234.004 210.564 233.949 210.629C233.896 210.694 233.826 210.75 233.747 210.789L233.3 211.044C233.279 211.057 233.256 211.066 233.233 211.072C233.21 211.078 233.186 211.079 233.164 211.076C233.142 211.074 233.122 211.067 233.105 211.057C233.088 211.046 233.075 211.032 233.065 211.016C233.046 210.982 233.045 210.939 233.062 210.897C233.079 210.856 233.113 210.818 233.157 210.793L233.604 210.538C233.642 210.528 233.678 210.507 233.707 210.479C233.707 210.479 233.683 210.437 233.658 210.394C233.52 210.369 233.371 210.373 233.221 210.405C233.071 210.436 232.924 210.496 232.789 210.579L230.925 211.642C230.904 211.654 230.881 211.662 230.858 211.667C230.834 211.672 230.811 211.672 230.789 211.668C230.768 211.665 230.748 211.657 230.732 211.646C230.716 211.635 230.703 211.62 230.694 211.603C230.676 211.571 230.675 211.53 230.691 211.49C230.707 211.45 230.74 211.414 230.782 211.391L232.646 210.328C232.836 210.211 233.045 210.13 233.258 210.091C233.47 210.052 233.679 210.058 233.867 210.106C233.931 210.142 233.982 210.193 234.016 210.254Z" fill="#E0E0E0"/>
<path opacity="0.8" d="M233.275 212.438L232.993 212.598C232.256 212.98 231.464 213.22 230.679 213.3C229.894 213.378 229.14 213.293 228.477 213.051C228.198 212.988 227.969 212.844 227.819 212.64C227.669 212.436 227.606 212.18 227.638 211.91C227.672 211.639 227.798 211.365 228.003 211.126C228.206 210.888 228.477 210.695 228.778 210.575L228.894 210.508L233.275 212.438ZM228.076 212.269C228.217 212.484 228.428 212.651 228.689 212.753C229.257 212.961 229.897 213.046 230.566 213.003C231.235 212.96 231.916 212.789 232.564 212.503L228.835 210.867C228.624 210.975 228.437 211.122 228.289 211.297C228.141 211.471 228.039 211.666 227.991 211.864C227.98 212.011 228.009 212.15 228.076 212.269Z" fill="#E0E0E0"/>
</g>
<path d="M200.554 220.854L196.485 254.257L190.323 251.553L194.393 218.151L200.554 220.854Z" fill="#4C9930"/>
<path opacity="0.5" d="M196.485 254.257L190.722 251.326L194.393 218.151L190.323 251.553L196.485 254.257Z" fill="white"/>
</g>
</g>
<defs>
<clipPath id="clip0_15_473">
<rect width="320" height="320" fill="white"/>
</clipPath>
</defs>
</svg>
