<svg width="320" height="265" viewBox="0 0 320 265" fill="none" xmlns="http://www.w3.org/2000/svg">
<g clip-path="url(#clip0_15_357)">
<mask id="mask0_15_357" style="mask-type:luminance" maskUnits="userSpaceOnUse" x="72" y="80" width="67" height="65">
<path d="M138.029 80.5864H72.3898V144.186H138.029V80.5864Z" fill="white"/>
</mask>
<g mask="url(#mask0_15_357)">
<path d="M105.203 80.5864L104.763 82.0352V124.08L105.203 124.505L125.346 112.969L105.203 80.5864Z" fill="#BD2A26"/>
<path d="M105.204 80.5864L85.0614 112.969L105.204 124.505V104.098V80.5864Z" fill="#BD2A26"/>
<path d="M105.203 128.201L104.955 128.493V143.47L105.203 144.172L125.357 116.67L105.203 128.201Z" fill="#BD2A26"/>
<path d="M105.204 144.172V128.2L85.0614 116.67L105.204 144.172Z" fill="#BD2A26"/>
<path d="M105.203 124.505L125.345 112.969L105.203 104.098V124.505Z" fill="#141414"/>
<path d="M85.0614 112.969L105.203 124.505V104.098L85.0614 112.969Z" fill="#393939"/>
</g>
<mask id="mask1_15_357" style="mask-type:luminance" maskUnits="userSpaceOnUse" x="112" y="120" width="67" height="69">
<path d="M178.324 120.84H112.685V188.15H178.324V120.84Z" fill="white"/>
</mask>
<g mask="url(#mask1_15_357)">
<path d="M149.848 186.989C134.457 186.989 122.121 172.483 122.121 154.495C122.121 136.507 134.57 122 149.848 122C165.126 122 177.575 136.507 177.575 154.495C177.575 172.483 165.126 186.989 149.848 186.989Z" fill="#D0E8F9"/>
<path d="M149.848 188.15C133.891 188.15 120.989 173.063 120.989 154.495C120.989 135.927 133.891 120.84 149.848 120.84C165.805 120.84 178.706 135.927 178.706 154.495C178.706 173.063 165.692 188.15 149.848 188.15ZM149.848 123.161C135.135 123.161 123.253 137.203 123.253 154.495C123.253 171.787 135.135 185.829 149.848 185.829C164.56 185.829 176.443 171.787 176.443 154.495C176.443 137.203 164.447 123.161 149.848 123.161Z" fill="#BD2A26"/>
<path d="M122.121 154.495C122.121 137.9 132.759 124.205 146.453 122.233C145.321 122.117 144.19 122 143.058 122C127.667 122 115.331 136.507 115.331 154.495C115.331 172.483 127.78 186.989 143.058 186.989C144.19 186.989 145.321 186.873 146.453 186.757C132.646 184.785 122.121 171.09 122.121 154.495Z" fill="white"/>
<path d="M143.058 188.15C127.101 188.15 114.199 173.063 114.199 154.495C114.199 135.927 127.101 120.84 143.058 120.84C144.19 120.84 145.321 120.956 146.566 121.072V123.393C133.212 125.25 123.253 138.712 123.253 154.495C123.253 170.278 133.325 183.74 146.566 185.597V187.918C145.321 188.034 144.19 188.15 143.058 188.15ZM138.191 123.625C125.856 126.295 116.463 139.176 116.463 154.495C116.463 169.814 125.856 182.696 138.305 185.365C128.006 180.027 120.99 168.073 120.99 154.495C120.99 140.917 128.006 128.964 138.191 123.625Z" fill="#BD2A26"/>
<path d="M134.004 182.348H127.214C126.535 182.348 126.082 181.884 126.082 181.187C126.082 180.491 126.535 180.027 127.214 180.027H134.004C134.683 180.027 135.136 180.491 135.136 181.187C135.136 181.884 134.57 182.348 134.004 182.348ZM128.572 176.545H121.782C121.102 176.545 120.65 176.081 120.65 175.384C120.65 174.688 121.102 174.224 121.782 174.224H128.572C129.251 174.224 129.704 174.688 129.704 175.384C129.704 176.081 129.138 176.545 128.572 176.545ZM124.724 169.582H117.934C117.254 169.582 116.802 169.118 116.802 168.421C116.802 167.725 117.254 167.261 117.934 167.261H124.724C125.403 167.261 125.856 167.725 125.856 168.421C125.856 169.118 125.403 169.582 124.724 169.582ZM122.913 163.779H116.123C115.444 163.779 114.991 163.315 114.991 162.619C114.991 161.922 115.444 161.458 116.123 161.458H122.913C123.593 161.458 124.045 161.922 124.045 162.619C124.045 163.315 123.592 163.779 122.913 163.779ZM122.121 157.977H115.444C114.765 157.977 114.312 157.513 114.312 156.816C114.312 156.12 114.765 155.656 115.444 155.656H122.121C122.8 155.656 123.253 156.12 123.253 156.816C123.253 157.513 122.687 157.977 122.121 157.977ZM122.234 152.174H115.444C114.765 152.174 114.312 151.71 114.312 151.014C114.312 150.317 114.765 149.853 115.444 149.853H122.234C122.913 149.853 123.366 150.317 123.366 151.014C123.366 151.71 122.8 152.174 122.234 152.174ZM123.253 146.372H116.462C115.783 146.372 115.331 145.908 115.331 145.211C115.331 144.515 115.783 144.05 116.462 144.05H123.253C123.932 144.05 124.385 144.515 124.385 145.211C124.385 145.908 123.819 146.372 123.253 146.372ZM125.176 140.569H118.386C117.707 140.569 117.254 140.105 117.254 139.408C117.254 138.712 117.707 138.248 118.386 138.248H125.177C125.856 138.248 126.308 138.712 126.308 139.408C126.308 140.105 125.856 140.569 125.176 140.569ZM129.477 133.606H122.687C122.008 133.606 121.555 133.142 121.555 132.445C121.555 131.749 122.008 131.285 122.687 131.285H129.477C130.156 131.285 130.609 131.749 130.609 132.445C130.609 133.142 130.043 133.606 129.477 133.606ZM135.475 127.803H128.798C128.119 127.803 127.666 127.339 127.666 126.643C127.666 125.946 128.119 125.482 128.798 125.482H135.475C136.154 125.482 136.607 125.946 136.607 126.643C136.607 127.339 136.041 127.803 135.475 127.803Z" fill="#BD2A26"/>
<path d="M149.848 180.607C149.056 180.607 148.264 180.607 147.472 180.491C146.905 180.374 146.453 179.794 146.453 179.214C146.566 178.634 147.132 178.17 147.698 178.17C148.377 178.286 149.056 178.286 149.848 178.286C150.527 178.286 150.98 178.75 150.98 179.446C150.98 180.143 150.527 180.607 149.848 180.607ZM156.412 179.33C155.959 179.33 155.506 179.098 155.394 178.634C155.167 178.053 155.506 177.357 156.072 177.125C156.752 176.893 157.317 176.545 157.996 176.197C158.562 175.849 159.241 176.08 159.468 176.661C159.807 177.241 159.581 177.937 159.015 178.17C158.336 178.518 157.544 178.866 156.865 179.098C156.751 179.33 156.638 179.33 156.412 179.33ZM141.134 178.518C140.907 178.518 140.794 178.518 140.568 178.401C139.889 178.053 139.21 177.589 138.531 177.241C137.965 176.893 137.852 176.197 138.191 175.616C138.531 175.036 139.21 174.92 139.776 175.268C140.342 175.616 141.02 176.08 141.587 176.313C142.153 176.545 142.379 177.357 142.039 177.821C141.926 178.286 141.587 178.518 141.134 178.518ZM163.881 174.34C163.542 174.34 163.315 174.224 163.089 173.992C162.636 173.528 162.636 172.831 163.089 172.367C163.542 171.903 164.108 171.323 164.56 170.742C164.9 170.278 165.692 170.162 166.145 170.626C166.598 170.974 166.711 171.787 166.258 172.251C165.805 172.831 165.239 173.528 164.673 173.992C164.447 174.224 164.221 174.34 163.881 174.34ZM134.231 172.715C133.891 172.715 133.551 172.599 133.325 172.251C132.872 171.671 132.306 170.974 131.967 170.278C131.627 169.698 131.741 169.002 132.306 168.653C132.872 168.305 133.551 168.421 133.891 169.001C134.343 169.582 134.683 170.162 135.136 170.742C135.588 171.206 135.475 172.019 135.023 172.367C134.796 172.599 134.457 172.715 134.231 172.715ZM168.861 166.796C168.747 166.796 168.521 166.796 168.408 166.68C167.842 166.448 167.616 165.752 167.842 165.172C168.069 164.475 168.408 163.779 168.634 163.083C168.861 162.502 169.426 162.154 170.106 162.386C170.672 162.619 171.011 163.199 170.784 163.895C170.558 164.707 170.219 165.404 169.992 166.1C169.766 166.565 169.313 166.796 168.861 166.796ZM129.93 164.708C129.477 164.708 129.024 164.359 128.911 163.895C128.685 163.199 128.459 162.387 128.232 161.574C128.119 160.994 128.459 160.298 129.024 160.182C129.59 160.066 130.269 160.414 130.383 160.994C130.609 161.69 130.722 162.387 130.948 163.083C131.175 163.663 130.835 164.359 130.269 164.592C130.156 164.708 130.043 164.708 129.93 164.708ZM171.011 157.86C170.332 157.86 169.879 157.28 169.879 156.584C169.879 155.888 169.992 155.191 169.992 154.495C169.992 153.799 170.445 153.335 171.124 153.335C171.803 153.335 172.256 153.799 172.256 154.495C172.256 155.308 172.256 156.004 172.143 156.816C172.143 157.396 171.577 157.86 171.011 157.86ZM128.459 155.656C127.78 155.656 127.327 155.191 127.327 154.495C127.327 153.683 127.327 152.87 127.44 152.058C127.44 151.362 128.006 150.897 128.685 151.014C129.364 151.014 129.817 151.594 129.703 152.29C129.703 152.987 129.59 153.799 129.59 154.495C129.59 155.191 129.138 155.656 128.459 155.656ZM170.332 148.809C169.879 148.809 169.313 148.46 169.2 147.88C168.974 147.184 168.861 146.488 168.634 145.791C168.408 145.211 168.747 144.515 169.313 144.282C169.879 144.051 170.558 144.398 170.784 144.979C171.011 145.675 171.237 146.488 171.464 147.3C171.577 147.88 171.237 148.576 170.672 148.693C170.445 148.693 170.332 148.809 170.332 148.809ZM129.93 146.603C129.817 146.603 129.703 146.603 129.59 146.487C129.024 146.255 128.685 145.675 128.911 144.979C129.138 144.282 129.477 143.47 129.703 142.774C129.93 142.194 130.609 141.961 131.175 142.194C131.741 142.425 131.967 143.122 131.741 143.702C131.401 144.398 131.175 145.095 130.949 145.791C130.835 146.372 130.383 146.603 129.93 146.603ZM166.71 140.337C166.371 140.337 166.031 140.104 165.805 139.873C165.353 139.292 165.013 138.712 164.56 138.132C164.108 137.668 164.221 136.855 164.673 136.507C165.126 136.043 165.918 136.159 166.258 136.623C166.711 137.203 167.276 137.9 167.616 138.596C167.955 139.176 167.842 139.873 167.276 140.221C167.05 140.337 166.937 140.337 166.71 140.337ZM134.231 138.596C134.004 138.596 133.778 138.48 133.551 138.364C133.098 138.016 132.985 137.203 133.438 136.739C133.891 136.159 134.457 135.462 135.023 134.998C135.475 134.534 136.154 134.534 136.607 134.998C137.06 135.462 137.06 136.159 136.607 136.623C136.154 137.087 135.588 137.668 135.136 138.248C134.909 138.48 134.57 138.596 134.231 138.596ZM160.373 133.954C160.146 133.954 159.92 133.838 159.807 133.722C159.241 133.374 158.562 132.91 157.996 132.677C157.431 132.445 157.204 131.633 157.543 131.168C157.77 130.588 158.449 130.356 159.015 130.704C159.694 131.053 160.373 131.517 161.052 131.865C161.618 132.213 161.731 132.91 161.391 133.49C161.052 133.722 160.713 133.954 160.373 133.954ZM141.134 132.793C140.681 132.793 140.342 132.561 140.115 132.213C139.776 131.633 140.002 130.937 140.568 130.704C141.247 130.356 142.039 130.008 142.718 129.776C143.284 129.544 143.963 129.892 144.189 130.472C144.416 131.053 144.076 131.749 143.51 131.981C142.831 132.213 142.152 132.561 141.587 132.91C141.473 132.793 141.247 132.793 141.134 132.793ZM151.998 130.82H151.885C151.206 130.704 150.527 130.704 149.848 130.704C149.169 130.704 148.716 130.24 148.716 129.544C148.716 128.847 149.169 128.383 149.848 128.383C150.64 128.383 151.432 128.383 152.224 128.499C152.79 128.616 153.13 129.196 153.13 129.776C153.017 130.356 152.564 130.82 151.998 130.82Z" fill="#BD2A26"/>
<path d="M157.657 152.29C159.468 151.014 160.373 149.157 160.373 146.72C160.373 144.631 159.694 142.89 158.336 141.497C156.978 140.105 155.167 139.409 153.017 139.409H141.473C140.794 139.409 140.342 139.873 140.342 140.569C140.342 141.266 140.794 141.73 141.473 141.73H144.076V165.172H141.473C140.794 165.172 140.342 165.636 140.342 166.333C140.342 167.029 140.794 167.493 141.473 167.493H154.375C156.751 167.493 158.675 166.797 160.033 165.404C161.391 164.011 162.07 162.155 162.07 159.95C162.184 155.888 160.599 153.335 157.657 152.29ZM156.638 150.201C155.733 151.13 154.601 151.71 153.13 151.71H146.339V141.73H152.903C154.488 141.73 155.733 142.194 156.638 143.122C157.543 144.051 157.996 145.211 157.996 146.604C157.996 147.996 157.543 149.273 156.638 150.201ZM146.453 154.031H154.488C156.186 154.031 157.544 154.495 158.449 155.54C159.354 156.468 159.92 157.861 159.92 159.602C159.92 161.342 159.468 162.735 158.449 163.664C157.544 164.592 156.186 165.172 154.488 165.172H146.453V154.031Z" fill="#BD2A26"/>
<path d="M150.98 160.878H140.794C140.228 160.878 139.663 160.298 139.663 159.717C139.663 159.021 140.228 158.557 140.794 158.557H150.98C151.546 158.557 152.112 159.021 152.112 159.717C152.112 160.298 151.546 160.878 150.98 160.878Z" fill="#BD2A26"/>
</g>
<path d="M194.099 244.93H21.6809C21.6809 244.93 18.4966 234.668 16.8973 219.249C15.2981 203.847 27.5305 206.304 30.1958 193.373C32.8471 180.427 40.2959 183.5 36.7468 168.944C34.4463 159.511 45.3318 150.29 55.0112 141.865C60.2576 137.295 65.1532 132.952 67.3979 128.918C70.0773 124.105 75.5902 122.853 81.3415 123.991C89.2673 125.552 97.67 131.619 99.8303 139.117C100.995 143.15 104.109 146.093 108.373 148.452C117.814 153.69 132.922 156.03 145.014 160.732C162.549 167.546 174.249 169.954 174.249 182.704C174.249 195.455 185.948 205.083 190.732 208.775C195.514 212.468 194.099 244.93 194.099 244.93Z" fill="#888889"/>
<path d="M37.6368 174.225C40.4925 167.56 48.0506 161.088 55.0112 155.029C60.2576 150.459 65.1537 146.117 67.3979 142.084C70.0773 137.269 75.5902 136.017 81.342 137.155C89.2673 138.717 97.6701 144.783 99.8303 152.281C100.995 156.314 104.109 159.258 108.373 161.617C117.814 166.853 132.922 169.196 145.014 173.895C162.55 180.71 174.249 183.118 174.249 195.868C174.249 208.62 185.948 218.247 190.732 221.94C193.125 223.787 193.966 232.842 194.209 241.427C194.417 232.94 194.545 211.719 190.732 208.775C185.948 205.083 174.249 195.455 174.249 182.704C174.249 169.954 162.55 167.546 145.014 160.732C132.922 156.03 117.814 153.69 108.373 148.452C104.109 146.093 100.995 143.15 99.8303 139.117C97.6701 131.619 89.2673 125.552 81.342 123.991C75.5902 122.853 70.0773 124.105 67.3979 128.918C65.1537 132.952 60.2576 137.295 55.0112 141.865C45.332 150.29 34.4464 159.511 36.747 168.944C37.2577 171.04 37.5345 172.76 37.6368 174.225Z" fill="#969696"/>
<path d="M17.5461 224.655C20.101 217.362 28.1014 216.7 30.196 206.537C32.8473 193.592 40.2961 196.666 36.7471 182.109C36.6217 181.595 36.5521 181.082 36.5028 180.57C34.8044 183.796 31.7146 185.958 30.196 193.373C27.5306 206.304 15.2984 203.847 16.8976 219.249C17.0928 221.132 17.3123 222.935 17.5461 224.655Z" fill="#969696"/>
<path d="M286.196 172.719L276.156 184.265L184.412 73.9255L191.517 65.7546L286.196 172.719Z" fill="#A87C4F"/>
<path d="M243.916 125.598L242.422 127.513L239.985 124.773L190.543 68.052L192.038 66.3335L239.689 120.887L243.916 125.598Z" fill="#C19063"/>
<path d="M184.895 74.547L184.387 73.9535L191.517 65.7546L192.026 66.3482L184.895 74.547Z" fill="#8E6844"/>
<path d="M239.508 120.68L286.195 172.719C282.4 175.643 275.213 166.038 274.674 165.356C274.565 165.218 273.53 163.864 273.303 163.56C272.554 162.564 271.407 161.36 270.063 160.057C269.946 159.943 263.28 153.897 260.756 151.373C259.147 149.763 258.221 147.567 258.21 147.53C257.345 145.106 256.274 141.322 254.603 139.619C252.711 137.69 250.165 136.516 247.154 134.291C247.104 134.253 247.051 134.217 247.001 134.177C245.421 133.001 243.716 131.531 241.912 129.51C240.592 128.036 239.8 126.723 239.356 125.578C239.341 125.542 239.326 125.509 239.314 125.472C238.699 123.845 238.793 122.572 239.061 121.69C239.064 121.676 239.07 121.663 239.074 121.648L239.072 121.647C239.2 121.233 239.363 120.912 239.508 120.68Z" fill="#8E6844"/>
<path d="M265.877 171.659L239.085 138.813L242.6 142.818L242.906 143.186C244.359 142.505 246.555 141.935 249.121 142.746C250.496 143.183 253.217 146.493 251.447 147.88C251.027 148.212 250.378 148.645 249.616 149.114C249.219 149.358 248.794 149.614 248.353 149.867L248.458 149.945L249.817 150.158L250.619 150.284L251.768 150.464C254.865 147.516 259.247 146.948 260.55 150.278C261.12 151.727 259.179 155.364 256.076 158.085L257.273 158.152L257.74 158.18L258.107 158.2C260.454 155.655 265.654 153.71 266.831 156.935C267.309 158.253 265.519 161.785 262.66 164.795L263.672 164.87C263.674 164.867 263.674 164.867 263.674 164.867L263.978 164.891C265.126 163.787 268.364 160.529 270.241 162.528C272 164.402 268.872 168.904 265.877 171.659Z" fill="#8E6844"/>
<path d="M221.145 20.0697L222.646 27.2764C222.646 27.2764 192.34 47.1262 189.099 58.692L191.717 63.6531C192.16 64.4917 192.046 65.5744 191.443 66.2661L188.092 70.1017L184.784 73.9866C184.188 74.6863 183.254 74.8186 182.531 74.3047L178.01 71.0968C162.825 82.1869 154.694 95.3971 144.458 117.93C144.458 117.93 144.739 45.6025 221.145 20.0697Z" fill="#929497"/>
<path d="M221.638 22.4362L221.145 20.0697C144.739 45.6025 144.458 117.93 144.458 117.93C145.2 116.295 150.603 47.0441 221.638 22.4362Z" fill="#A6A8AB"/>
<path d="M222.185 25.0597C222.185 25.0597 189.175 46.8904 185.934 58.4578L188.552 63.4184C188.996 64.257 188.882 65.3398 188.278 66.0314L186.409 68.15L184.581 70.3179C183.985 71.0171 183.052 71.1499 182.327 70.6355L177.806 67.428C153.408 84.3733 144.458 117.93 144.458 117.93C154.694 95.3971 162.825 82.187 178.01 71.0968L182.531 74.3047C183.254 74.8186 184.188 74.6864 184.784 73.9867L188.092 70.1017L191.443 66.2661C192.046 65.5744 192.16 64.4917 191.717 63.6531L189.099 58.692C192.34 47.1262 222.646 27.2764 222.646 27.2764L222.185 25.0597Z" fill="#808184"/>
<path d="M264.915 173.824C261.476 175.973 258.863 175.969 256.897 174.692C255.272 173.633 254.857 172.288 254.914 171.098C254.99 169.494 255.928 168.16 255.928 168.16L256.211 167.983L260.165 165.505L261.154 165.832L261.466 165.934L263.785 166.107C263.787 166.105 263.787 166.105 263.787 166.105L264.091 166.13C263.441 166.818 263.24 167.628 263.24 167.628C264.881 164.964 268.753 161.426 270.353 163.766C272.016 166.199 268.237 171.183 264.915 173.824Z" fill="#F2BF94"/>
<path d="M268.417 163.767C268.417 163.767 264.884 166.436 266.111 168.492C267.339 170.547 270.296 166.099 270.296 166.099C270.296 166.099 270.115 164.399 268.417 163.767Z" fill="#FFDCC2"/>
<path d="M261.149 168.846C260.217 169.404 256.697 170.921 254.914 171.099C254.991 169.494 255.928 168.16 255.928 168.16L256.211 167.984L259.419 166.403L261.154 165.832L261.466 165.934L263.785 166.107C263.727 166.187 262.123 168.267 261.149 168.846Z" fill="#DBA886"/>
<path d="M261.062 167.651C255.884 170.057 252.155 171.115 249.816 169.689C246.921 167.929 247.177 165.322 247.743 163.66C248.065 162.715 248.489 162.074 248.489 162.074L253.379 158.795L254.918 159.249L257.852 159.417L258.22 159.437C257.478 160.275 257.045 161.164 257.045 161.164C258.893 157.976 263.153 156.151 263.153 156.151C263.153 156.151 265.767 154.948 266.944 158.173C267.514 159.735 264.881 164.426 261.062 167.651Z" fill="#F2BF94"/>
<path d="M247.895 163.253C248.184 162.536 248.489 162.074 248.489 162.074L253.379 158.795L254.918 159.249L257.386 159.391C257.386 159.391 255.903 161.155 254.857 161.713C253.81 162.273 247.857 163.346 247.895 163.253Z" fill="#DBA886"/>
<path d="M263.225 157.035C263.225 157.035 266.152 156.648 266.208 160.165C266.208 160.165 263.78 163.69 262.399 163.571C261.019 163.451 260.149 160.977 261.271 159.311C262.064 158.133 263.225 157.035 263.225 157.035Z" fill="#FFDCC2"/>
<path d="M255.079 160.218C249.946 161.998 246.222 162.616 243.809 160.932C240.772 158.816 240.994 156.207 241.524 154.638C241.721 154.048 241.963 153.605 242.096 153.389C242.153 153.289 242.191 153.235 242.191 153.235L247.874 150.358L248.467 151.102L248.571 151.182L250.732 151.522L251.881 151.702C251.164 152.444 250.788 153.328 250.788 153.328C252.533 150.383 256.763 149.075 256.763 149.075C256.763 149.075 259.359 148.185 260.664 151.515C261.298 153.128 258.813 157.467 255.079 160.218Z" fill="#F2BF94"/>
<path d="M244.903 154.181C243.108 154.96 241.62 154.368 241.67 154.246C241.83 153.852 241.995 153.554 242.096 153.388C242.342 153.487 242.56 153.548 242.749 153.577C243.527 153.696 246.2 152.401 248.467 151.102L248.571 151.182L249.932 151.395C249.932 151.395 246.305 153.571 244.903 154.181Z" fill="#DBA886"/>
<path d="M256.576 150.055C256.576 150.055 259.662 149.835 259.887 153.53C259.887 153.53 257.478 157.078 256.009 156.863C254.538 156.648 253.499 153.998 254.611 152.32C255.396 151.133 256.576 150.055 256.576 150.055Z" fill="#FFDCC2"/>
<path d="M242.713 144.055L243.019 144.422L241.366 146.357L240.751 145.917L241.178 143.996L242.713 144.055Z" fill="#D39E7A"/>
<path d="M251.56 149.118C251.139 149.449 250.49 149.883 249.729 150.352C247.288 151.858 243.682 153.72 242.748 153.577C242.381 153.52 241.883 153.334 241.334 152.999C240.046 152.229 238.468 150.671 237.584 148.156C236.655 145.52 238.028 142.273 238.816 140.741L242.004 144.7C241.591 145.115 241.266 145.505 241.266 145.505C241.428 145.37 241.729 145.139 242.153 144.886C242.401 144.734 242.691 144.575 243.019 144.423C244.472 143.743 246.668 143.174 249.233 143.984C250.609 144.421 253.33 147.731 251.56 149.118Z" fill="#F2BF94"/>
<path d="M248.331 144.71C248.331 144.71 251.268 145.362 251.012 148.623C251.012 148.623 248.007 150.745 246.712 150.127C245.417 149.509 244.544 147.482 246.047 146.284C247.11 145.436 248.331 144.71 248.331 144.71Z" fill="#FFDCC2"/>
<path d="M242.713 144.055C242.476 144.241 242.225 144.474 242.004 144.701L238.816 140.742C239.099 140.197 239.308 139.868 239.308 139.868L242.713 144.055Z" fill="#DBA886"/>
<path d="M319.996 142.227V168.88C319.996 168.88 291.337 168.328 288.907 168.348C288.873 168.349 288.848 168.352 288.825 168.355C288.448 168.403 288.037 168.553 287.604 168.76C286.574 169.246 285.422 170.05 284.286 170.533C284.273 170.538 284.261 170.545 284.246 170.547C283.506 170.863 282.777 171.038 282.093 170.896C281.454 170.762 280.69 170.275 279.87 169.579L279.863 169.571C279.789 169.507 279.715 169.442 279.641 169.375C278.226 168.123 276.665 166.283 275.304 164.552C275.194 164.413 275.088 164.273 274.981 164.137C274.976 164.133 274.972 164.128 274.969 164.121C274.86 163.982 274.752 163.841 274.645 163.7C274.397 163.375 274.159 163.06 273.932 162.755C273.183 161.76 272.037 160.555 270.692 159.252C270.575 159.138 270.458 159.024 270.336 158.911C267.501 156.192 263.909 153.092 261.385 150.569C259.776 148.959 258.851 146.761 258.838 146.725C257.973 144.3 256.902 140.516 255.232 138.815C253.339 136.885 250.794 135.712 247.783 133.487C247.733 133.447 247.68 133.412 247.63 133.372C246.049 132.195 244.345 130.725 242.541 128.705C241.221 127.23 240.429 125.917 239.985 124.773C239.969 124.737 239.956 124.704 239.943 124.668C239.328 123.04 239.422 121.766 239.689 120.886C239.694 120.87 239.7 120.858 239.703 120.843L239.701 120.841C239.991 119.91 240.464 119.429 240.464 119.429C240.464 119.429 241.463 118.149 242.695 119.045C242.708 119.054 242.721 119.063 242.732 119.074C243.946 119.97 244.987 121.569 245.962 122.259C246.106 122.358 246.295 122.459 246.515 122.555C246.79 122.674 247.114 122.79 247.469 122.91C248.775 123.348 250.481 123.805 251.544 124.508C253.126 125.557 256.567 127.823 259.934 128.835C263.304 129.843 266.148 130.765 268.927 131.664C271.71 132.562 278.212 138.334 280.043 139.432C280.285 139.578 281.557 139.753 283.588 139.945C283.83 139.97 284.089 139.995 284.359 140.017C298.603 141.306 319.996 142.227 319.996 142.227Z" fill="#F2BF94"/>
<path d="M245.67 125.549C245.67 125.549 241.909 121.675 241.744 120.762C241.585 119.855 242.705 119.057 242.705 119.057C242.714 119.06 242.723 119.07 242.731 119.074C243.946 119.97 244.987 121.569 245.962 122.259C246.285 122.486 246.828 122.696 247.47 122.91C247.4 123.221 247.232 123.559 247.026 123.886C246.482 124.753 245.67 125.549 245.67 125.549Z" fill="#FFDCC2"/>
<path d="M285.592 143.317C284.605 143.175 283.161 142.921 282.767 142.811C278.011 141.485 273.939 137.14 271.527 135.227C269.11 133.322 264.751 131.555 262.375 131.239C259.993 130.929 254.676 128.387 253.021 126.804C251.462 125.311 247.913 123.173 247.506 122.935C247.508 122.932 247.511 122.93 247.511 122.925C248.811 123.358 250.493 123.812 251.544 124.508C253.126 125.557 256.566 127.823 259.934 128.835C263.304 129.843 266.148 130.766 268.927 131.664C271.71 132.562 278.211 138.334 280.042 139.432C280.314 139.595 282.943 139.885 285.419 140.105L285.592 143.317Z" fill="#F9C5A2"/>
<path d="M288.907 168.348C288.873 168.35 288.848 168.352 288.825 168.355C288.751 168.367 288.678 168.378 288.6 168.396C288.287 168.465 287.951 168.595 287.604 168.76C286.574 169.246 285.422 170.05 284.286 170.533C283.531 170.856 282.788 171.039 282.093 170.896C281.454 170.762 280.69 170.276 279.87 169.579L279.863 169.571C278.392 168.317 276.738 166.375 275.304 164.552L275.293 164.405C275.293 164.405 279.053 169.286 281.904 169.058C284.058 168.89 285.89 167.283 287.306 166.457C286.422 159.657 285.42 140.105 285.42 140.105C285.42 140.105 286.568 140.204 286.692 140.215L288.526 165.976L288.907 168.348Z" fill="#DBA886"/>
<path d="M319.996 139.638V170.222L289.142 169.811L286.584 138.898L319.996 139.638Z" fill="#BD2A26"/>
<path d="M286.849 142.098L319.996 142.897V139.638L286.584 138.898L286.849 142.098Z" fill="#BD2A26"/>
</g>
<defs>
<clipPath id="clip0_15_357">
<rect width="319.991" height="265" fill="white" transform="translate(0.0045166)"/>
</clipPath>
</defs>
</svg>
