<svg width="320" height="250" viewBox="0 0 320 250" fill="none" xmlns="http://www.w3.org/2000/svg">
<g clip-path="url(#clip0_15_412)">
<path d="M159.862 248.991C248.147 248.991 319.718 244.812 319.718 239.658C319.718 234.503 248.147 230.325 159.862 230.325C71.5761 230.325 0.00634766 234.503 0.00634766 239.658C0.00634766 244.812 71.5761 248.991 159.862 248.991Z" fill="#F5F5F5"/>
<path d="M156.119 14.2244C157.24 28.2403 173.432 46.4445 178.61 51.9519C178.814 52.1701 179.06 52.3443 179.334 52.463C179.608 52.5821 179.903 52.6433 180.201 52.6433C180.5 52.6433 180.795 52.5821 181.069 52.463C181.342 52.3443 181.589 52.1701 181.793 51.9519C186.987 46.4445 203.163 28.232 204.284 14.2244C204.322 13.7943 204.234 13.3624 204.031 12.9816C203.827 12.6008 203.517 12.2877 203.138 12.0808L181.24 0.266194C180.922 0.091551 180.565 0 180.201 0C179.838 0 179.481 0.091551 179.162 0.266194L157.265 12.0808C156.887 12.2893 156.578 12.6027 156.375 12.9831C156.171 13.3635 156.083 13.7946 156.119 14.2244Z" fill="#BD2A26"/>
<path opacity="0.3" d="M178.577 46.6425C171.982 39.2223 162.417 26.7481 160.134 16.8216C160.03 16.3602 160.077 15.8777 160.266 15.4446C160.456 15.0115 160.78 14.6505 161.189 14.4141L179.113 4.10829C179.446 3.91813 179.822 3.81812 180.205 3.81812C180.589 3.81812 180.965 3.91813 181.298 4.10829L199.222 14.3811C199.643 14.6224 199.972 14.9952 200.16 15.4421C200.347 15.8891 200.383 16.3854 200.261 16.8545C197.985 26.7976 188.454 39.2223 181.826 46.6754C181.62 46.9032 181.368 47.0849 181.087 47.2083C180.805 47.3316 180.501 47.3937 180.194 47.3909C179.887 47.3876 179.584 47.3195 179.305 47.1905C179.026 47.0611 178.778 46.8747 178.577 46.6425Z" fill="#BD2A26"/>
<path opacity="0.3" d="M178.577 46.6425C171.982 39.2223 162.417 26.7481 160.134 16.8216C160.03 16.3602 160.077 15.8777 160.266 15.4446C160.456 15.0115 160.78 14.6505 161.189 14.4141L179.113 4.10829C179.446 3.91813 179.822 3.81812 180.205 3.81812C180.589 3.81812 180.965 3.91813 181.298 4.10829L199.222 14.3811C199.643 14.6224 199.972 14.9952 200.16 15.4421C200.347 15.8891 200.383 16.3854 200.261 16.8545C197.985 26.7976 188.454 39.2223 181.826 46.6754C181.62 46.9032 181.368 47.0849 181.087 47.2083C180.805 47.3316 180.501 47.3937 180.194 47.3909C179.887 47.3876 179.584 47.3195 179.305 47.1905C179.026 47.0611 178.778 46.8747 178.577 46.6425Z" fill="white"/>
<path d="M177.761 31.5959C177.598 31.5962 177.438 31.5643 177.288 31.5021C177.138 31.4398 177.001 31.3484 176.887 31.2331L170.778 25.0991C170.559 24.8647 170.441 24.5546 170.446 24.2342C170.452 23.9138 170.582 23.6081 170.808 23.3816C171.035 23.155 171.34 23.0252 171.661 23.0195C171.981 23.0138 172.291 23.1328 172.526 23.3513L177.761 28.5784L190.128 16.2526C190.361 16.023 190.675 15.8943 191.002 15.8943C191.329 15.8943 191.643 16.023 191.876 16.2526C191.991 16.3668 192.083 16.503 192.146 16.653C192.209 16.803 192.241 16.9639 192.241 17.1265C192.241 17.2891 192.209 17.4501 192.146 17.6001C192.083 17.7501 191.991 17.8862 191.876 18.0005L178.684 31.1919C178.566 31.3191 178.424 31.4206 178.265 31.4901C178.106 31.5597 177.934 31.5957 177.761 31.5959Z" fill="white"/>
<path d="M229.669 64.9453H115.341C109.877 64.9453 105.447 69.3751 105.447 74.8392V224.809C105.447 230.273 109.877 234.703 115.341 234.703H229.669C235.134 234.703 239.563 230.273 239.563 224.809V74.8392C239.563 69.3751 235.134 64.9453 229.669 64.9453Z" fill="#263238"/>
<path d="M237.37 64.9453H123.041C117.577 64.9453 113.148 69.3751 113.148 74.8392V224.809C113.148 230.273 117.577 234.703 123.041 234.703H237.37C242.834 234.703 247.264 230.273 247.264 224.809V74.8392C247.264 69.3751 242.834 64.9453 237.37 64.9453Z" fill="#BD2A26"/>
<path d="M136.579 234.711H125.449C125.107 234.711 124.83 234.988 124.83 235.329V237.119C124.83 237.46 125.107 237.737 125.449 237.737H136.579C136.92 237.737 137.197 237.46 137.197 237.119V235.329C137.197 234.988 136.92 234.711 136.579 234.711Z" fill="#263238"/>
<path d="M234.954 234.711H223.824C223.482 234.711 223.206 234.988 223.206 235.329V237.119C223.206 237.46 223.482 237.737 223.824 237.737H234.954C235.296 237.737 235.573 237.46 235.573 237.119V235.329C235.573 234.988 235.296 234.711 234.954 234.711Z" fill="#263238"/>
<path opacity="0.2" d="M237.37 64.9453H123.041C117.577 64.9453 113.148 69.3751 113.148 74.8392V224.809C113.148 230.273 117.577 234.703 123.041 234.703H237.37C242.834 234.703 247.264 230.273 247.264 224.809V74.8392C247.264 69.3751 242.834 64.9453 237.37 64.9453Z" fill="black"/>
<g style="mix-blend-mode:color-dodge" opacity="0.4">
<path d="M223.898 215.13H136.505C135.504 215.128 134.545 214.729 133.837 214.022C133.13 213.314 132.731 212.355 132.729 211.354V88.3109C132.729 87.3084 133.126 86.347 133.834 85.6379C134.542 84.9283 135.503 84.5285 136.505 84.5266H223.898C224.9 84.5285 225.861 84.9283 226.569 85.6379C227.277 86.347 227.674 87.3084 227.674 88.3109V211.354C227.672 212.355 227.274 213.314 226.566 214.022C225.858 214.729 224.899 215.128 223.898 215.13ZM136.505 84.9386C135.612 84.941 134.757 85.2969 134.126 85.9294C133.495 86.5614 133.141 87.4177 133.141 88.3109V211.354C133.141 211.796 133.228 212.233 133.397 212.641C133.566 213.049 133.814 213.42 134.126 213.732C134.438 214.045 134.809 214.293 135.218 214.462C135.626 214.631 136.063 214.718 136.505 214.718H223.898C224.79 214.718 225.646 214.363 226.277 213.732C226.908 213.102 227.262 212.246 227.262 211.354V88.3109C227.262 87.4177 226.908 86.5614 226.277 85.9294C225.646 85.2969 224.791 84.941 223.898 84.9386H136.505Z" fill="#E6E6E6"/>
</g>
<path d="M225.827 211.354V88.3025C225.827 87.2416 224.967 86.3816 223.906 86.3816H136.505C135.444 86.3816 134.584 87.2416 134.584 88.3025V211.354C134.584 212.415 135.444 213.275 136.505 213.275H223.906C224.967 213.275 225.827 212.415 225.827 211.354Z" fill="#BD2A26"/>
<path opacity="0.1" d="M225.827 211.354V88.3025C225.827 87.2416 224.967 86.3816 223.906 86.3816H136.505C135.444 86.3816 134.584 87.2416 134.584 88.3025V211.354C134.584 212.415 135.444 213.275 136.505 213.275H223.906C224.967 213.275 225.827 212.415 225.827 211.354Z" fill="white"/>
<path d="M250.141 99.9438H249.316V106.902H250.141V99.9438Z" fill="#BD2A26"/>
<path d="M250.141 74.8391H249.316V92.6145H250.141V74.8391Z" fill="#BD2A26"/>
<path opacity="0.1" d="M180.202 180.346C195.728 180.346 208.316 167.759 208.316 152.232C208.316 136.705 195.728 124.117 180.202 124.117C164.675 124.117 152.087 136.705 152.087 152.232C152.087 167.759 164.675 180.346 180.202 180.346Z" fill="black"/>
<path d="M180.201 110.481C183.994 110.481 187.069 107.406 187.069 103.613C187.069 99.8198 183.994 96.7451 180.201 96.7451C176.409 96.7451 173.333 99.8198 173.333 103.613C173.333 107.406 176.409 110.481 180.201 110.481Z" fill="#BD2A26"/>
<path opacity="0.6" d="M180.16 110.464C183.953 110.464 187.028 107.39 187.028 103.597C187.028 99.8034 183.953 96.7288 180.16 96.7288C176.367 96.7288 173.292 99.8034 173.292 103.597C173.292 107.39 176.367 110.464 180.16 110.464Z" fill="white"/>
<path d="M180.201 109.038C179.128 109.038 178.08 108.72 177.187 108.124C176.295 107.527 175.6 106.68 175.189 105.689C174.779 104.698 174.671 103.607 174.881 102.554C175.09 101.502 175.606 100.535 176.365 99.7768C177.124 99.0181 178.091 98.5015 179.143 98.2922C180.195 98.0829 181.286 98.1904 182.277 98.601C183.268 99.0116 184.116 99.7067 184.712 100.599C185.308 101.491 185.626 102.54 185.626 103.613C185.624 105.051 185.052 106.43 184.035 107.447C183.018 108.464 181.64 109.036 180.201 109.038ZM180.201 98.6C179.21 98.6 178.241 98.8943 177.416 99.4451C176.592 99.9958 175.949 100.779 175.57 101.695C175.191 102.61 175.091 103.618 175.285 104.591C175.479 105.563 175.956 106.456 176.657 107.157C177.358 107.859 178.251 108.336 179.224 108.529C180.196 108.723 181.204 108.623 182.12 108.244C183.035 107.865 183.818 107.222 184.369 106.398C184.92 105.573 185.214 104.604 185.214 103.613C185.212 102.284 184.683 101.01 183.744 100.071C182.804 99.1312 181.53 98.6024 180.201 98.6Z" fill="#BD2A26"/>
<path d="M134.468 102.541H131.409C130.736 102.541 130.189 103.087 130.189 103.761V120.498C130.189 121.172 130.736 121.718 131.409 121.718H134.468C135.142 121.718 135.688 121.172 135.688 120.498V103.761C135.688 103.087 135.142 102.541 134.468 102.541Z" fill="#BD2A26"/>
<path opacity="0.6" d="M134.468 102.541H131.409C130.736 102.541 130.189 103.087 130.189 103.761V120.498C130.189 121.172 130.736 121.718 131.409 121.718H134.468C135.142 121.718 135.688 121.172 135.688 120.498V103.761C135.688 103.087 135.142 102.541 134.468 102.541Z" fill="white"/>
<path d="M134.468 177.939H131.409C130.736 177.939 130.189 178.485 130.189 179.159V195.895C130.189 196.569 130.736 197.116 131.409 197.116H134.468C135.142 197.116 135.688 196.569 135.688 195.895V179.159C135.688 178.485 135.142 177.939 134.468 177.939Z" fill="#BD2A26"/>
<path opacity="0.6" d="M134.468 177.939H131.409C130.736 177.939 130.189 178.485 130.189 179.159V195.895C130.189 196.569 130.736 197.116 131.409 197.116H134.468C135.142 197.116 135.688 196.569 135.688 195.895V179.159C135.688 178.485 135.142 177.939 134.468 177.939Z" fill="white"/>
<path d="M180.202 177.947C195.728 177.947 208.316 165.36 208.316 149.833C208.316 134.305 195.728 121.718 180.202 121.718C164.675 121.718 152.087 134.305 152.087 149.833C152.087 165.36 164.675 177.947 180.202 177.947Z" fill="#BD2A26"/>
<path opacity="0.6" d="M180.202 177.947C195.728 177.947 208.316 165.36 208.316 149.833C208.316 134.305 195.728 121.718 180.202 121.718C164.675 121.718 152.087 134.305 152.087 149.833C152.087 165.36 164.675 177.947 180.202 177.947Z" fill="white"/>
<path d="M166.292 134.747L165.126 135.913L194.124 164.911L195.29 163.745L166.292 134.747Z" fill="#BD2A26"/>
<path d="M194.124 134.747L165.126 163.745L166.292 164.911L195.29 135.913L194.124 134.747Z" fill="#BD2A26"/>
<path opacity="0.2" d="M194.028 134.653L165.031 163.651L166.197 164.817L195.194 135.819L194.028 134.653Z" fill="black"/>
<path opacity="0.2" d="M166.203 134.659L165.037 135.825L194.035 164.823L195.201 163.657L166.203 134.659Z" fill="black"/>
<path d="M180.119 171.079C175.897 171.081 171.769 169.83 168.258 167.486C164.747 165.141 162.01 161.808 160.392 157.908C158.776 154.007 158.352 149.715 159.175 145.574C159.997 141.433 162.03 137.629 165.014 134.643C167.999 131.657 171.803 129.623 175.943 128.799C180.084 127.974 184.377 128.397 188.278 130.012C192.178 131.627 195.513 134.363 197.858 137.874C200.204 141.384 201.456 145.512 201.456 149.733C201.452 155.392 199.202 160.817 195.202 164.819C191.202 168.821 185.777 171.072 180.119 171.079ZM180.119 130.037C176.223 130.035 172.414 131.189 169.174 133.352C165.934 135.516 163.408 138.591 161.916 142.19C160.424 145.789 160.033 149.75 160.792 153.571C161.551 157.392 163.426 160.903 166.18 163.658C168.934 166.413 172.444 168.29 176.265 169.051C180.086 169.811 184.047 169.422 187.646 167.931C191.246 166.441 194.323 163.916 196.487 160.677C198.652 157.438 199.807 153.629 199.807 149.733C199.803 144.512 197.727 139.506 194.036 135.814C190.345 132.121 185.34 130.043 180.119 130.037Z" fill="#BD2A26"/>
<path d="M186.426 156.049C189.913 152.561 189.913 146.908 186.426 143.421C182.939 139.934 177.286 139.934 173.799 143.421C170.312 146.908 170.312 152.561 173.799 156.049C177.286 159.535 182.939 159.535 186.426 156.049Z" fill="#BD2A26"/>
<path opacity="0.2" d="M180.119 171.079C175.897 171.081 171.769 169.83 168.258 167.486C164.747 165.141 162.01 161.808 160.392 157.908C158.776 154.007 158.352 149.715 159.175 145.574C159.997 141.433 162.03 137.629 165.014 134.643C167.999 131.657 171.803 129.623 175.943 128.799C180.084 127.974 184.377 128.397 188.278 130.012C192.178 131.627 195.513 134.363 197.858 137.874C200.204 141.384 201.456 145.512 201.456 149.733C201.452 155.392 199.202 160.817 195.202 164.819C191.202 168.821 185.777 171.072 180.119 171.079ZM180.119 130.037C176.223 130.035 172.414 131.189 169.174 133.352C165.934 135.516 163.408 138.591 161.916 142.19C160.424 145.789 160.033 149.75 160.792 153.571C161.551 157.392 163.426 160.903 166.18 163.658C168.934 166.413 172.444 168.29 176.265 169.051C180.086 169.811 184.047 169.422 187.646 167.931C191.246 166.441 194.323 163.916 196.487 160.677C198.652 157.438 199.807 153.629 199.807 149.733C199.803 144.512 197.727 139.506 194.036 135.814C190.345 132.121 185.34 130.043 180.119 130.037Z" fill="black"/>
<path opacity="0.2" d="M186.426 156.049C189.913 152.561 189.913 146.908 186.426 143.421C182.939 139.934 177.286 139.934 173.799 143.421C170.312 146.908 170.312 152.561 173.799 156.049C177.286 159.535 182.939 159.535 186.426 156.049Z" fill="black"/>
</g>
<defs>
<clipPath id="clip0_15_412">
<rect width="319.987" height="249.45" fill="white" transform="translate(0.00634766)"/>
</clipPath>
</defs>
</svg>
