<svg width="320" height="320" viewBox="0 0 320 320" fill="none" xmlns="http://www.w3.org/2000/svg">
<path d="M162.535 221.937C167.45 226.851 175.418 226.851 180.332 221.937C185.247 217.022 185.247 209.054 180.332 204.139C175.418 199.225 167.45 199.225 162.535 204.139C157.62 209.054 157.62 217.022 162.535 221.937Z" fill="#ECECEC"/>
<path d="M176.012 205.571C176.056 206.16 175.874 206.766 175.546 207.28C175.22 207.799 174.728 208.215 174.179 208.488C173.616 208.757 172.929 208.852 172.331 208.646C171.734 208.457 171.235 208.06 170.923 207.563C171.398 207.9 171.912 208.142 172.433 208.229C172.694 208.272 172.953 208.277 173.204 208.23C173.46 208.2 173.702 208.102 173.938 207.995C174.055 207.936 174.176 207.872 174.29 207.805C174.4 207.729 174.515 207.661 174.617 207.576C174.838 207.423 175.019 207.226 175.202 207.027C175.552 206.616 175.83 206.126 176.012 205.571Z" fill="#C8C8C8"/>
<path d="M171.488 206.295C171.422 205.89 171.53 205.459 171.75 205.092C171.97 204.724 172.309 204.42 172.698 204.232C173.094 204.036 173.592 203.982 174.009 204.137C174.429 204.282 174.766 204.576 174.952 204.94C174.602 204.736 174.25 204.597 173.908 204.553C173.565 204.505 173.243 204.584 172.938 204.725C172.305 205.03 171.807 205.552 171.488 206.295Z" fill="#C8C8C8"/>
<path d="M171.431 218.952C171.593 219.318 171.592 219.753 171.464 220.151C171.334 220.55 171.076 220.916 170.737 221.17C170.394 221.439 169.923 221.573 169.497 221.504C169.073 221.442 168.697 221.232 168.442 220.925C168.819 221.039 169.182 221.098 169.518 221.076C169.854 221.054 170.144 220.928 170.403 220.733C170.672 220.532 170.897 220.278 171.072 219.982C171.242 219.684 171.365 219.34 171.431 218.952Z" fill="#C8C8C8"/>
<path d="M168.826 220.381C168.68 220.134 168.663 219.825 168.74 219.537C168.822 219.248 169.004 218.982 169.246 218.801C169.493 218.607 169.841 218.512 170.146 218.574C170.449 218.633 170.708 218.798 170.861 219.038C170.585 218.992 170.34 218.974 170.125 219.006C169.912 219.034 169.743 219.117 169.58 219.238C169.238 219.5 168.99 219.846 168.826 220.381Z" fill="#C8C8C8"/>
<path d="M166.897 207.632C167.118 207.828 167.246 208.122 167.256 208.44C167.265 208.761 167.136 209.091 166.9 209.329C166.659 209.587 166.283 209.684 165.978 209.644C165.668 209.608 165.393 209.476 165.187 209.266C165.477 209.263 165.739 209.262 165.969 209.212C166.199 209.166 166.377 209.082 166.51 208.943C166.653 208.797 166.766 208.611 166.828 208.396C166.895 208.176 166.91 207.921 166.897 207.632Z" fill="#C8C8C8"/>
<path d="M165.338 208.854C165.155 208.735 165.045 208.529 165.026 208.296C165.008 208.061 165.097 207.814 165.274 207.637C165.455 207.443 165.743 207.374 165.962 207.415C166.186 207.454 166.376 207.564 166.502 207.741C166.291 207.777 166.115 207.8 165.972 207.847C165.826 207.892 165.737 207.947 165.665 208.024C165.582 208.107 165.508 208.211 165.454 208.341C165.396 208.474 165.364 208.641 165.338 208.854Z" fill="#C8C8C8"/>
<path d="M175.642 220.896C175.505 221.157 175.252 221.353 174.945 221.441C174.637 221.528 174.285 221.485 173.996 221.313C173.687 221.143 173.5 220.802 173.465 220.497C173.425 220.187 173.486 219.888 173.639 219.636C173.713 219.918 173.778 220.171 173.882 220.382C173.982 220.595 174.108 220.746 174.275 220.839C174.452 220.944 174.659 221.007 174.884 221.015C175.112 221.026 175.363 220.978 175.642 220.896Z" fill="#C8C8C8"/>
<path d="M174.076 219.683C174.145 219.476 174.319 219.319 174.54 219.243C174.763 219.169 175.026 219.195 175.24 219.323C175.473 219.451 175.609 219.713 175.624 219.936C175.64 220.162 175.58 220.373 175.439 220.54C175.352 220.343 175.288 220.178 175.207 220.051C175.128 219.921 175.052 219.848 174.961 219.796C174.859 219.736 174.74 219.69 174.601 219.669C174.458 219.646 174.287 219.655 174.076 219.683Z" fill="#C8C8C8"/>
<path d="M179.953 212.042C179.988 212.334 179.888 212.639 179.684 212.883C179.477 213.13 179.162 213.291 178.827 213.311C178.476 213.345 178.129 213.168 177.929 212.935C177.721 212.701 177.603 212.421 177.589 212.126C177.808 212.317 178.004 212.49 178.208 212.606C178.412 212.725 178.6 212.78 178.792 212.764C178.996 212.75 179.203 212.686 179.393 212.566C179.589 212.447 179.769 212.266 179.953 212.042Z" fill="#C8C8C8"/>
<path d="M177.975 211.919C177.917 211.709 177.972 211.481 178.112 211.295C178.255 211.107 178.487 210.982 178.736 210.967C179 210.941 179.261 211.082 179.398 211.258C179.539 211.436 179.607 211.644 179.584 211.861C179.402 211.747 179.256 211.647 179.118 211.586C178.979 211.524 178.876 211.507 178.771 211.515C178.654 211.522 178.529 211.551 178.402 211.613C178.27 211.674 178.135 211.777 177.975 211.919Z" fill="#C8C8C8"/>
<path d="M163.284 214.891C163.319 215.184 163.218 215.489 163.015 215.733C162.808 215.979 162.493 216.141 162.158 216.161C161.807 216.194 161.46 216.018 161.26 215.785C161.053 215.551 160.935 215.271 160.92 214.976C161.138 215.168 161.336 215.34 161.54 215.456C161.743 215.575 161.931 215.63 162.123 215.613C162.327 215.6 162.534 215.536 162.724 215.416C162.92 215.297 163.1 215.116 163.284 214.891Z" fill="#C8C8C8"/>
<path d="M161.307 214.769C161.248 214.558 161.303 214.331 161.443 214.144C161.587 213.957 161.818 213.832 162.067 213.817C162.332 213.792 162.593 213.931 162.729 214.108C162.87 214.286 162.939 214.495 162.916 214.71C162.734 214.597 162.588 214.497 162.449 214.436C162.311 214.374 162.207 214.356 162.102 214.365C161.985 214.373 161.861 214.401 161.734 214.462C161.602 214.523 161.466 214.627 161.307 214.769Z" fill="#C8C8C8"/>
<g opacity="0.399994">
<g opacity="0.399994">
<path opacity="0.399994" d="M29.0562 166.284C29.0377 164.933 29.227 163.644 29.4534 162.387C29.6729 161.127 29.9696 159.902 30.255 158.683C30.8332 156.245 31.4544 153.845 31.9661 151.428C32.4939 149.017 32.9326 146.597 33.2666 144.173C33.5999 141.749 33.7841 139.314 33.8935 136.894C34.0636 132.043 33.7495 127.227 32.9723 122.531C32.7906 121.356 32.561 120.189 32.332 119.029C32.0793 117.845 31.8273 116.8 31.5542 115.421C31.0226 112.802 30.6042 110.127 30.3624 107.402C29.8583 101.956 30.0195 96.2878 31.132 90.6276C32.2373 84.9789 34.3131 79.3561 37.3535 74.2505C40.3907 69.144 44.2998 64.5546 48.7105 60.6681C53.1286 56.7767 58.0428 53.5868 63.2112 51.0704C65.7957 49.8063 68.4468 48.7139 71.168 47.781C72.5267 47.307 73.9094 46.8893 75.3185 46.5062L78.7343 45.5869C82.9807 44.3805 87.0515 42.9578 90.9591 41.0945C94.9003 39.2873 98.689 37.0107 102.77 34.4085C106.835 31.8178 111.23 28.865 116.1 26.2711C118.528 24.9764 121.047 23.7649 123.628 22.719C124.918 22.1925 126.223 21.7096 127.532 21.2503L129.504 20.5972C130.253 20.3707 131.005 20.1551 131.769 19.9671C134.825 19.2071 138.044 18.8028 141.321 18.9353C144.594 19.0466 147.922 19.7029 151.064 20.9656C154.201 22.2348 157.132 24.1384 159.532 26.5596C161.944 28.9667 163.803 31.8805 164.954 34.9561C166.127 38.0291 166.606 41.232 166.573 44.2916C166.552 47.3582 166.026 50.2952 165.19 53.0365C163.462 58.5202 160.694 63.2487 157.482 67.4782C155.882 69.6122 154.097 71.5912 152.241 73.4661C150.361 75.3194 148.383 77.0504 146.327 78.6509C138.083 85.0701 128.717 89.2929 120.252 94.2364C116.034 96.6793 112.007 99.3583 108.96 102.44C107.453 103.99 106.221 105.623 105.35 107.299C105.131 107.719 104.935 108.141 104.757 108.565C104.584 108.982 104.423 109.405 104.263 109.866C103.945 110.786 103.658 111.797 103.398 112.847C102.878 114.951 102.475 117.224 102.122 119.537C101.74 121.849 101.446 124.223 101.118 126.616L100.171 133.872C99.8558 136.312 99.5252 138.768 99.1496 141.232C97.6393 151.086 95.7217 161.134 92.1355 171.143C90.3086 176.135 88.0796 181.14 84.9055 185.933C84.0957 187.123 83.2484 188.302 82.3057 189.451C81.3788 190.604 80.3708 191.729 79.2491 192.787C78.1466 193.851 76.9396 194.862 75.6298 195.777C74.9917 196.245 74.2879 196.66 73.5951 197.068L72.521 197.642C72.1736 197.819 71.8685 197.949 71.5418 198.103C68.9549 199.278 66.2375 200.239 63.4055 200.844C60.5807 201.455 57.6441 201.703 54.7387 201.481C51.8337 201.282 48.9758 200.546 46.3679 199.395C45.0648 198.814 43.8239 198.122 42.6731 197.326C41.5127 196.548 40.4336 195.674 39.4446 194.729C35.4824 190.923 32.9551 186.165 31.3763 181.295C29.8008 176.4 29.1445 171.33 29.0562 166.284ZM30.9752 166.263C31.0098 171.124 31.8382 176.011 33.7022 180.435C35.5502 184.838 38.4774 188.798 42.2618 191.253C43.2002 191.869 44.1776 192.397 45.1813 192.83C46.1913 193.251 47.2314 193.561 48.2753 193.778C50.3647 194.224 52.4915 194.214 54.5444 193.871C58.6626 193.156 62.4681 191.115 65.8293 188.428C66.0317 188.26 66.2663 188.083 66.4405 187.925L66.9174 187.474C67.2259 187.151 67.5343 186.844 67.827 186.493C68.4219 185.82 68.9784 185.074 69.4956 184.262C70.5343 182.659 71.4746 180.843 72.2772 178.894C73.9209 175.003 75.1971 170.667 76.3509 166.209C78.6345 157.249 80.4519 147.765 82.6151 138.133C83.1534 135.722 83.7258 133.3 84.3346 130.867C84.9213 128.429 85.5796 125.985 86.2704 123.524C87.6747 118.598 89.2416 113.644 91.5684 108.54C92.1595 107.26 92.8047 105.969 93.57 104.658C93.9528 104.004 94.3769 103.334 94.8308 102.682C95.2894 102.041 95.7692 101.423 96.2691 100.831C98.2774 98.4621 100.585 96.5541 102.931 94.9886C107.629 91.8357 112.45 89.8677 117.084 87.8719C121.738 85.9317 126.282 84.052 130.594 81.8279C134.903 79.6123 138.977 77.0552 142.578 74.015C146.192 70.9939 149.266 67.4312 151.627 63.4838C153.974 59.5209 155.689 55.205 156.186 50.9994C156.436 48.9039 156.409 46.856 156.07 44.9696C155.717 43.0851 155.065 41.3701 154.143 39.9417C152.315 37.0606 149.541 35.3258 146.418 34.7034C144.859 34.3746 143.203 34.3368 141.52 34.5115C139.837 34.7072 138.119 35.1275 136.415 35.7627C135.99 35.922 135.567 36.1017 135.144 36.2834L133.635 36.9391C132.637 37.3907 131.649 37.8551 130.68 38.3528C128.74 39.3462 126.849 40.4177 124.984 41.6088C121.251 43.9698 117.587 46.8305 113.507 49.8946C109.451 52.9573 104.907 56.1127 99.9939 58.7955C95.0639 61.4433 89.8566 63.6421 84.5956 65.2642C83.9402 65.4848 83.2801 65.6552 82.6204 65.8495L80.8477 66.3546C79.869 66.6406 78.8821 66.9582 77.8972 67.2964C75.9301 67.9834 73.9842 68.7736 72.0945 69.6492C64.5224 73.1783 57.9132 78.1294 53.1996 84.5678C50.8166 87.7721 48.8064 91.3127 47.2052 95.205C46.3954 97.1466 45.6821 99.1736 45.1007 101.28C44.4866 103.381 44.0145 105.558 43.6083 107.791C43.2213 110.023 42.9238 112.313 42.737 114.642C42.6398 115.736 42.5733 117.164 42.4831 118.455C42.3724 119.772 42.2592 121.083 42.1018 122.388C41.4807 127.61 40.5059 132.726 39.1951 137.685C37.9222 142.654 36.3249 147.462 34.7148 152.193C33.9037 154.558 33.0932 156.906 32.371 159.255C31.6661 161.596 31.0098 163.985 30.9752 166.263Z" fill="#ECECEC"/>
</g>
<g opacity="0.399994">
<path opacity="0.399994" d="M113.21 188.531C110.473 193.601 107.925 198.768 105.664 204.043L104.82 206.021L104.025 208.019C103.478 209.342 103.003 210.693 102.515 212.037C101.522 214.718 100.665 217.44 99.874 220.169C98.3009 225.626 97.1687 231.179 96.6213 236.671C96.3085 239.414 96.2475 242.14 96.2595 244.81C96.3704 247.469 96.5435 250.094 97.0578 252.565C97.2325 253.823 97.624 254.999 97.9051 256.189L98.487 257.896C98.5844 258.179 98.6708 258.464 98.7744 258.74L99.1342 259.542C100.017 261.71 101.22 263.609 102.557 265.33C102.913 265.746 103.263 266.161 103.59 266.586L104.743 267.74C104.936 267.93 105.11 268.131 105.313 268.313L105.956 268.831C106.388 269.173 106.783 269.536 107.224 269.867L108.599 270.817C108.831 270.973 109.038 271.146 109.285 271.289L110.034 271.714L111.506 272.581L113.102 273.343C115.205 274.382 117.539 275.214 119.93 275.981C120.503 276.191 121.152 276.359 121.789 276.533C122.424 276.704 123.064 276.896 123.692 277.051C124.94 277.325 126.196 277.657 127.395 277.848C129.82 278.292 132.136 278.546 134.279 278.504C136.436 278.465 138.453 278.2 140.539 277.664C144.678 276.611 149.293 274.359 154.304 271.678C156.802 270.357 159.359 268.947 161.977 267.52C164.578 266.089 167.28 264.705 169.975 263.312C180.83 257.763 192.243 252.935 203.82 248.964L205.989 248.207L208.17 247.492C209.624 247.022 211.073 246.526 212.532 246.078L221.077 243.478C223.793 242.64 226.483 241.746 229.164 240.831L233.15 239.392C234.465 238.889 235.787 238.392 237.096 237.872C239.691 236.8 242.302 235.743 244.823 234.539L246.729 233.658L248.603 232.731C249.868 232.128 251.067 231.443 252.304 230.796C257.146 228.096 261.809 225.097 265.967 221.575C268.069 219.829 269.978 217.916 271.792 215.921C273.623 213.934 275.196 211.763 276.6 209.499C279.435 204.974 281.204 199.876 281.835 194.59C282.111 191.943 282.104 189.255 281.795 186.578C281.703 185.915 281.638 185.229 281.527 184.581L281.127 182.686C280.762 181.464 280.369 180.251 279.794 179.143C278.695 176.898 277.073 174.976 275.01 173.493C272.951 172.004 270.483 170.939 267.846 170.21C265.208 169.468 262.402 169.08 259.56 168.802C256.71 168.568 253.803 168.483 250.864 168.508C244.989 168.54 239.005 168.907 232.83 169.032C229.736 169.081 226.585 169.055 223.354 168.843C220.124 168.631 216.802 168.243 213.378 167.422C206.4 165.713 200.388 162.585 194.941 159.118C184.13 152.125 175.62 143.753 166.971 137.621C162.663 134.555 158.402 132.11 154.017 130.768C151.822 130.083 149.565 129.714 147.223 129.59C145.061 129.498 143.104 129.701 141.268 130.408C139.434 131.103 137.623 132.314 135.974 134.048C134.321 135.769 132.846 137.934 131.546 140.287C130.24 142.643 129.087 145.184 128.014 147.794C126.985 150.421 126.006 153.112 125.114 155.84C123.284 161.291 121.681 166.862 119.846 172.369C118.029 177.878 115.973 183.346 113.21 188.531ZM111.51 187.662C114.224 182.669 116.046 177.232 117.361 171.691C118.699 166.145 119.548 160.483 120.381 154.758C120.823 151.897 121.218 149.007 121.743 146.1C122.246 143.183 122.853 140.241 123.726 137.266C124.61 134.297 125.742 131.273 127.502 128.303C129.251 125.356 131.725 122.417 135.052 120.229C135.872 119.682 136.765 119.231 137.641 118.744C138.545 118.331 139.472 117.953 140.406 117.583C141.343 117.292 142.3 117.013 143.26 116.766C144.207 116.586 145.164 116.415 146.127 116.254C149.756 115.749 153.528 115.835 157.187 116.405C160.851 116.969 164.356 118.073 167.598 119.442C170.839 120.828 173.83 122.48 176.607 124.256C182.159 127.819 186.931 131.814 191.413 135.692L197.963 141.434C199.032 142.374 200.108 143.268 201.169 144.174L202.756 145.507L204.351 146.792C206.492 148.457 208.604 150.068 210.799 151.443C212.967 152.86 215.226 154.067 217.429 155.014C219.715 155.986 222.294 156.741 224.993 157.355C227.692 157.973 230.512 158.471 233.393 158.892C239.172 159.738 245.165 160.277 251.246 160.983L255.824 161.55C257.361 161.774 258.894 162.006 260.438 162.289C263.526 162.816 266.626 163.545 269.701 164.578C272.763 165.624 275.823 167.035 278.531 169.084C281.243 171.113 283.5 173.801 285.002 176.754C285.782 178.228 286.311 179.768 286.783 181.309L287.356 183.632C287.518 184.398 287.619 185.144 287.751 185.903C288.188 188.934 288.395 192.013 288.272 195.1C288.098 198.178 287.686 201.26 286.919 204.269C286.711 205.016 286.555 205.782 286.315 206.52L285.599 208.741C285.045 210.191 284.492 211.652 283.829 213.061C281.235 218.733 277.691 223.966 273.542 228.633C271.479 230.976 269.287 233.215 266.967 235.301C264.674 237.427 262.233 239.371 259.746 241.256C258.483 242.164 257.238 243.117 255.941 243.974L254.008 245.29L252.04 246.547C249.4 248.204 246.704 249.756 243.956 251.217C242.58 251.938 241.191 252.634 239.803 253.337C238.402 254.002 236.996 254.667 235.581 255.303C234.16 255.917 232.747 256.569 231.312 257.15C229.871 257.718 228.439 258.326 226.987 258.858L218.653 261.97C217.301 262.473 215.971 263.019 214.629 263.542L212.621 264.333L210.632 265.162C199.989 269.526 189.851 274.608 179.887 280.191C174.889 283.014 169.938 285.932 164.561 288.919C161.887 290.419 159.041 291.879 155.936 293.269C152.829 294.626 149.425 295.913 145.708 296.76C142.006 297.627 138.04 298.034 134.212 297.918C130.364 297.84 126.717 297.222 123.294 296.418C121.552 296.04 119.934 295.535 118.287 295.051C117.476 294.798 116.697 294.518 115.902 294.25C115.112 293.981 114.327 293.722 113.511 293.38L111.091 292.409L109.888 291.912L108.693 291.331C107.1 290.544 105.518 289.795 103.983 288.806C103.212 288.338 102.443 287.872 101.686 287.385L99.4734 285.752L98.3801 284.927C98.0202 284.645 97.683 284.316 97.3356 284.011L95.2861 282.142C94.6331 281.483 94.0258 280.764 93.4049 280.075L92.4862 279.031C92.1926 278.671 91.9273 278.284 91.649 277.911C91.1026 277.157 90.5537 276.408 90.0318 275.647C89.5558 274.851 89.1025 274.046 88.6558 273.243C86.9632 269.993 85.6645 266.579 85.0619 263.159L84.8 261.884C84.7333 261.46 84.6896 261.035 84.6354 260.612C84.5361 259.766 84.4229 258.921 84.3557 258.083C84.3183 256.412 84.1979 254.743 84.3212 253.122C84.4056 249.851 84.9621 246.724 85.5609 243.667C86.2642 240.638 87.0572 237.676 88.07 234.826C90.038 229.106 92.4378 223.679 95.0232 218.405C95.6833 217.092 96.3017 215.764 96.994 214.473C97.6681 213.174 98.3009 211.861 98.997 210.578C99.6706 209.284 100.368 208.004 101.054 206.722L103.125 202.886L111.51 187.662Z" fill="#ECECEC"/>
</g>
<g opacity="0.399994">
<path opacity="0.399994" d="M289.594 57.4974C288.747 59.3329 287.815 60.9516 286.84 62.4763C286.363 63.2482 285.864 63.966 285.367 64.6976C284.859 65.3995 284.341 66.111 283.818 66.7798C282.785 68.1509 281.695 69.4141 280.601 70.6696C276.217 75.6294 271.437 79.8858 266.751 84.1058L265.097 85.6075L264.365 86.2753L263.674 87.004C263.2 87.4804 262.774 88.0341 262.325 88.5599C261.904 89.1212 261.483 89.6825 261.072 90.2746C260.667 90.8685 260.268 91.4644 259.896 92.1029C259.522 92.7271 259.15 93.3657 258.798 94.0239C258.108 95.3389 257.412 96.6928 256.804 98.0884C254.266 103.677 252.357 109.689 249.382 115.706C247.838 118.693 246 121.75 243.319 124.402C242.015 125.764 240.457 126.914 238.824 127.965C237.99 128.45 237.144 128.953 236.261 129.342C235.817 129.545 235.374 129.764 234.929 129.946L233.572 130.449C231.745 131.106 229.89 131.524 228.032 131.847C227.087 132.014 226.061 132.066 225.059 132.16C224.054 132.226 223.077 132.166 222.069 132.157C221.074 132.132 220.124 131.987 219.137 131.876C218.642 131.828 218.176 131.728 217.708 131.635L216.287 131.347L215.577 131.194L214.895 130.996L213.528 130.585C212.599 130.339 211.744 129.99 210.868 129.647C207.393 128.272 204.208 126.453 201.313 124.346C198.438 122.219 195.827 119.822 193.493 117.219C191.167 114.613 189.165 111.757 187.43 108.766C187.005 108.013 186.596 107.252 186.193 106.492C185.801 105.723 185.45 104.927 185.088 104.147C184.717 103.372 184.389 102.569 184.082 101.768C183.767 100.963 183.449 100.171 183.183 99.343C182.057 96.1017 181.26 92.7401 180.679 89.3966C180.115 86.044 179.774 82.6848 179.756 79.3514C179.722 76.0257 179.924 72.7379 180.496 69.5317C181.075 66.3283 182.048 63.2142 183.52 60.3251C185.013 57.4158 187.225 54.8318 189.914 52.849C192.592 50.8565 195.644 49.3846 198.768 48.1852C205.049 45.8253 211.666 44.3509 218.182 43.3415C221.454 42.838 224.702 42.5079 227.921 42.3039C228.39 42.2904 228.576 42.2169 228.845 42.1778L229.595 42.048C230.104 41.8926 230.59 41.851 231.095 41.6668L231.837 41.4608C232.089 41.3687 232.338 41.2689 232.591 41.1972C233.088 41.0578 233.611 40.7993 234.116 40.6362C236.197 39.8002 238.427 38.7377 240.844 37.3931L244.639 35.2635L246.666 34.1205L248.821 32.9588C250.268 32.163 251.887 31.4037 253.551 30.6457C255.273 29.9209 257.087 29.1987 259.1 28.6307C261.143 28.0716 263.29 27.5881 265.662 27.4409C268.004 27.2842 270.481 27.3731 272.893 27.8797L273.801 28.0505L274.684 28.2891C275.27 28.4548 275.865 28.6109 276.442 28.8015C277.548 29.2269 278.706 29.6357 279.712 30.1826L281.253 30.9809L282.667 31.8585C283.64 32.4425 284.456 33.0957 285.308 33.7398C285.534 33.9094 285.707 34.0405 285.962 34.2458C286.295 34.5241 286.611 34.81 286.926 35.1023C287.559 35.655 288.168 36.3612 288.738 37.0809C288.877 37.2549 289.019 37.4366 289.153 37.622L289.543 38.2157C289.795 38.6155 290.033 39.0172 290.269 39.4253C290.688 40.2576 291.065 41.1358 291.347 41.9968C291.473 42.4292 291.594 42.8598 291.7 43.2922C291.756 43.5129 291.811 43.7329 291.85 43.9414L291.947 44.5664C292.007 44.9765 292.053 45.3891 292.097 45.808C292.143 46.22 292.132 46.5801 292.143 46.9748C292.146 47.3529 292.145 47.7431 292.13 48.1152L292.04 49.1639C292.001 49.5079 291.974 49.8759 291.916 50.1935L291.745 51.141C291.231 53.6391 290.436 55.6599 289.594 57.4974Z" fill="#ECECEC"/>
</g>
<g opacity="0.399994">
<path opacity="0.399994" d="M78.6024 226.671C78.9349 228.603 79.0438 230.439 78.9925 232.211C78.9411 235.761 78.1419 239.01 77.2653 242.177C76.3763 245.35 75.295 248.433 73.9454 251.407C72.5699 254.369 70.8941 257.209 68.8086 259.814C66.7169 262.41 64.3118 264.847 61.4395 266.932C58.5547 268.979 54.9723 270.483 51.045 271.071C49.0876 271.359 47.0469 271.417 45.0575 271.193C43.0745 270.956 41.1554 270.451 39.4794 269.689C37.7907 268.941 36.3514 267.988 35.104 266.977C33.8503 265.96 32.7692 264.886 31.7201 263.804C31.17 263.203 30.6775 262.557 30.2425 261.86C29.8331 261.15 29.494 260.401 29.1998 259.621C28.656 258.06 28.3106 256.397 28.0868 254.702C27.639 251.311 27.543 247.684 27.9716 244.211C28.4002 240.737 29.4749 237.501 31.1636 234.737C32.8524 231.974 35.0656 229.626 37.6755 227.752C40.2727 225.859 43.3239 224.502 46.3112 223.268C49.3433 222.065 52.2794 220.933 55.0683 219.615C57.9085 218.342 60.5567 216.833 63.9534 215.777C64.8108 215.521 65.719 215.285 66.736 215.176C67.7407 215.048 68.847 215.022 70.0497 215.227C71.3417 215.444 72.8899 216.167 74.0284 217.165C74.3038 217.415 74.5979 217.683 74.8344 217.952C75.0714 218.221 75.3079 218.496 75.532 218.784C75.922 219.328 76.3121 219.916 76.5874 220.46C76.907 221.036 77.1181 221.547 77.3551 222.11C77.547 222.622 77.7643 223.185 77.8986 223.677L78.1227 224.451L78.3079 225.2C78.4297 225.705 78.5127 226.179 78.6024 226.671Z" fill="#ECECEC"/>
</g>
</g>
<g opacity="0.399994">
<g opacity="0.399994">
<path opacity="0.399994" d="M259.296 119.288C274.336 107.608 289.461 109.881 289.461 109.881C289.461 109.881 289.53 125.177 275.804 138.375C264.223 149.513 253.221 148.882 249.432 144.501C245.643 140.119 246.604 129.141 259.296 119.288Z" fill="#ECECEC"/>
</g>
<g opacity="0.399994">
<path opacity="0.399994" d="M257.622 126.841C267.157 119.436 276.746 120.878 276.746 120.878C276.746 120.878 276.79 130.574 268.088 138.943C260.746 146.005 253.771 145.604 251.368 142.827C248.966 140.048 249.576 133.088 257.622 126.841Z" fill="white"/>
</g>
</g>
<path d="M264.524 130.841L263.386 129.932C263.06 129.672 263.007 129.197 263.266 128.872C263.527 128.546 264.002 128.493 264.327 128.752L265.466 129.661C265.791 129.921 265.844 130.396 265.585 130.722C265.325 131.047 264.85 131.101 264.524 130.841Z" fill="#ECECEC"/>
<path d="M251.689 142.55L250.895 141.33C250.667 140.98 250.766 140.513 251.116 140.285C251.465 140.058 251.932 140.157 252.159 140.506L252.954 141.726C253.181 142.076 253.083 142.543 252.734 142.771C252.384 142.998 251.916 142.899 251.689 142.55Z" fill="#ECECEC"/>
<path d="M259.184 128.515L258.401 128.492C257.985 128.479 257.658 128.131 257.67 127.715C257.682 127.298 258.03 126.97 258.447 126.983L259.229 127.006C259.646 127.019 259.973 127.367 259.961 127.784C259.948 128.201 259.6 128.528 259.184 128.515Z" fill="#ECECEC"/>
<path d="M266.428 137.981L266.453 137.199C266.465 136.782 266.813 136.455 267.23 136.468C267.646 136.481 267.973 136.829 267.961 137.245L267.937 138.027C267.925 138.444 267.577 138.771 267.161 138.759C266.743 138.746 266.415 138.398 266.428 137.981Z" fill="#ECECEC"/>
<path d="M249.75 138.212L249.662 137.434C249.616 137.02 249.914 136.647 250.328 136.6C250.743 136.554 251.117 136.852 251.163 137.266L251.25 138.044C251.296 138.457 250.998 138.831 250.584 138.878C250.17 138.925 249.796 138.626 249.75 138.212Z" fill="#ECECEC"/>
<path d="M262.447 145.031L261.719 145.316C261.332 145.468 260.893 145.277 260.741 144.889C260.589 144.5 260.781 144.063 261.168 143.91L261.897 143.625C262.284 143.473 262.723 143.664 262.875 144.052C263.027 144.44 262.835 144.878 262.447 145.031Z" fill="#ECECEC"/>
<path d="M265.66 141.9C262.661 145.658 257.181 146.274 253.422 143.274C249.663 140.274 249.048 134.795 252.049 131.035C255.048 127.276 260.528 126.661 264.287 129.661C268.046 132.661 268.66 138.141 265.66 141.9Z" fill="#ECECEC"/>
<path d="M255.13 131.687C255.144 132.094 255.316 132.497 255.582 132.825C255.846 133.157 256.216 133.406 256.615 133.551C257.023 133.692 257.503 133.705 257.898 133.516C258.294 133.341 258.607 133.03 258.783 132.664C258.482 132.932 258.147 133.138 257.796 133.238C257.621 133.287 257.442 133.312 257.265 133.299C257.088 133.298 256.913 133.249 256.743 133.193C256.658 133.161 256.57 133.127 256.486 133.09C256.405 133.046 256.32 133.008 256.244 132.957C256.08 132.87 255.94 132.748 255.799 132.625C255.526 132.37 255.298 132.054 255.13 131.687Z" fill="#C8C8C8"/>
<path d="M258.297 131.836C258.311 131.552 258.203 131.263 258.023 131.028C257.844 130.792 257.587 130.609 257.305 130.51C257.018 130.406 256.671 130.407 256.395 130.546C256.119 130.677 255.91 130.906 255.81 131.17C256.035 131.004 256.265 130.881 256.498 130.824C256.73 130.765 256.957 130.794 257.178 130.868C257.637 131.028 258.019 131.35 258.297 131.836Z" fill="#C8C8C8"/>
<path d="M261.895 137.451C261.812 137.715 261.847 138.014 261.965 138.278C262.086 138.542 262.291 138.774 262.545 138.922C262.801 139.081 263.134 139.136 263.422 139.056C263.71 138.98 263.952 138.807 264.103 138.576C263.853 138.684 263.608 138.752 263.375 138.763C263.142 138.774 262.933 138.71 262.74 138.596C262.54 138.478 262.365 138.321 262.222 138.131C262.082 137.939 261.971 137.712 261.895 137.451Z" fill="#C8C8C8"/>
<path d="M263.797 138.231C263.879 138.051 263.866 137.837 263.791 137.645C263.713 137.453 263.567 137.284 263.386 137.179C263.201 137.064 262.955 137.025 262.75 137.091C262.546 137.155 262.381 137.289 262.293 137.465C262.481 137.413 262.648 137.381 262.798 137.387C262.947 137.39 263.07 137.433 263.191 137.504C263.446 137.658 263.643 137.877 263.797 138.231Z" fill="#C8C8C8"/>
<path d="M264.782 135.177C264.646 135.328 264.581 135.54 264.598 135.76C264.617 135.981 264.73 136.198 264.912 136.344C265.097 136.503 265.363 136.541 265.57 136.49C265.78 136.44 265.959 136.329 266.085 136.168C265.885 136.189 265.704 136.208 265.542 136.192C265.381 136.178 265.252 136.134 265.15 136.048C265.04 135.96 264.949 135.84 264.889 135.696C264.826 135.551 264.796 135.376 264.782 135.177Z" fill="#C8C8C8"/>
<path d="M265.949 135.897C266.066 135.801 266.125 135.65 266.121 135.489C266.115 135.326 266.034 135.163 265.899 135.055C265.76 134.935 265.556 134.91 265.409 134.955C265.258 134.999 265.136 135.09 265.062 135.221C265.211 135.23 265.333 135.231 265.436 135.253C265.539 135.272 265.604 135.304 265.661 135.35C265.723 135.402 265.783 135.467 265.829 135.552C265.88 135.64 265.915 135.753 265.949 135.897Z" fill="#C8C8C8"/>
<path d="M252.637 133.945C252.635 134.149 252.728 134.351 252.887 134.503C253.048 134.656 253.277 134.743 253.509 134.731C253.752 134.727 253.978 134.578 254.097 134.403C254.222 134.226 254.281 134.024 254.269 133.821C254.133 133.969 254.011 134.103 253.879 134.198C253.749 134.296 253.624 134.348 253.491 134.352C253.349 134.358 253.202 134.33 253.062 134.262C252.918 134.195 252.781 134.085 252.637 133.945Z" fill="#C8C8C8"/>
<path d="M253.987 133.708C254.011 133.559 253.955 133.406 253.845 133.289C253.732 133.172 253.563 133.103 253.39 133.112C253.206 133.115 253.038 133.231 252.958 133.363C252.874 133.496 252.844 133.645 252.876 133.792C252.992 133.7 253.085 133.62 253.176 133.568C253.266 133.514 253.335 133.494 253.408 133.492C253.49 133.488 253.577 133.498 253.669 133.53C253.765 133.562 253.867 133.623 253.987 133.708Z" fill="#C8C8C8"/>
<path d="M258.148 139.279C257.234 139.816 256.056 139.507 255.517 138.588C254.977 137.669 255.28 136.489 256.193 135.952C257.107 135.416 258.285 135.725 258.825 136.644C259.365 137.562 259.062 138.742 258.148 139.279Z" fill="#DCDCDC"/>
<path d="M256.173 136.815C255.676 137.108 255.377 137.611 255.324 138.146C255.085 137.32 255.419 136.406 256.194 135.951C257.107 135.415 258.286 135.724 258.825 136.643C259.215 137.305 259.167 138.103 258.765 138.698C258.855 138.284 258.795 137.837 258.562 137.441C258.073 136.609 257.003 136.327 256.173 136.815Z" fill="#C8C8C8"/>
<path d="M254.562 138.234C254.599 138.733 254.817 139.22 255.145 139.616C255.474 140.018 255.925 140.316 256.412 140.493C256.907 140.666 257.485 140.683 257.968 140.46C258.452 140.253 258.84 139.88 259.073 139.441C258.715 139.782 258.306 140.049 257.866 140.182C257.757 140.217 257.644 140.234 257.534 140.255C257.422 140.261 257.31 140.28 257.198 140.266C256.974 140.267 256.754 140.206 256.539 140.136C256.432 140.096 256.323 140.052 256.218 140.005C256.117 139.95 256.011 139.902 255.915 139.838C255.712 139.726 255.536 139.572 255.363 139.416C255.028 139.092 254.752 138.691 254.562 138.234Z" fill="#C8C8C8"/>
<path d="M252.55 139.197C252.177 139.329 251.767 139.131 251.635 138.757C251.503 138.382 251.698 137.971 252.071 137.84C252.444 137.708 252.853 137.906 252.986 138.281C253.118 138.655 252.922 139.066 252.55 139.197Z" fill="#DCDCDC"/>
<path d="M252.002 138.154C251.8 138.226 251.654 138.389 251.596 138.581C251.567 138.262 251.756 137.951 252.071 137.839C252.444 137.708 252.853 137.906 252.986 138.28C253.082 138.55 253.006 138.839 252.817 139.029C252.879 138.883 252.89 138.715 252.833 138.554C252.712 138.214 252.34 138.035 252.002 138.154Z" fill="#C8C8C8"/>
<path d="M251.311 138.56C251.279 138.745 251.319 138.944 251.41 139.118C251.5 139.292 251.646 139.438 251.815 139.539C251.988 139.64 252.206 139.688 252.403 139.636C252.598 139.59 252.766 139.474 252.877 139.322C252.715 139.415 252.546 139.476 252.379 139.49C252.213 139.504 252.053 139.459 251.911 139.376C251.618 139.205 251.404 138.92 251.311 138.56Z" fill="#C8C8C8"/>
<path d="M257.979 143.278C257.424 143.371 256.9 142.994 256.807 142.436C256.713 141.879 257.088 141.353 257.642 141.26C258.196 141.168 258.72 141.545 258.813 142.102C258.906 142.659 258.532 143.185 257.979 143.278Z" fill="#DCDCDC"/>
<path d="M257.468 141.683C257.166 141.734 256.923 141.925 256.795 142.182C256.834 141.727 257.172 141.338 257.642 141.26C258.196 141.167 258.721 141.545 258.814 142.101C258.88 142.503 258.705 142.889 258.394 143.107C258.517 142.92 258.572 142.687 258.532 142.446C258.448 141.942 257.971 141.599 257.468 141.683Z" fill="#C8C8C8"/>
<path d="M256.401 142.08C256.33 142.334 256.342 142.615 256.432 142.873C256.52 143.133 256.685 143.366 256.892 143.545C257.103 143.724 257.385 143.841 257.665 143.824C257.944 143.814 258.204 143.702 258.405 143.533C258.166 143.639 257.909 143.691 257.667 143.676C257.423 143.661 257.199 143.557 257.015 143.4C256.827 143.242 256.676 143.043 256.569 142.819C256.467 142.594 256.403 142.342 256.401 142.08Z" fill="#C8C8C8"/>
<path d="M261.405 132.967C261.942 133.616 262.97 133.65 263.703 133.045C264.436 132.439 264.595 131.422 264.059 130.774C263.524 130.125 262.494 130.09 261.762 130.695C261.028 131.301 260.869 132.318 261.405 132.967Z" fill="#DCDCDC"/>
<path d="M263.785 131.468C264.077 131.822 264.142 132.296 264.002 132.738C264.468 132.134 264.514 131.322 264.059 130.773C263.524 130.124 262.493 130.089 261.762 130.695C261.233 131.132 261.002 131.782 261.117 132.354C261.186 132.001 261.383 131.658 261.699 131.397C262.363 130.848 263.298 130.88 263.785 131.468Z" fill="#C8C8C8"/>
<path d="M260.718 131.873C260.528 132.245 260.488 132.706 260.632 133.132C260.699 133.349 260.832 133.541 260.983 133.708C261.134 133.877 261.324 133.998 261.53 134.107C261.743 134.192 261.967 134.25 262.193 134.252C262.415 134.249 262.637 134.228 262.843 134.16C263.257 134.037 263.631 133.822 263.932 133.534C263.548 133.688 263.162 133.811 262.778 133.87C262.394 133.929 262.012 133.907 261.686 133.761C261.529 133.683 261.367 133.583 261.237 133.454C261.101 133.332 260.989 133.185 260.905 133.019C260.74 132.687 260.68 132.286 260.718 131.873Z" fill="#C8C8C8"/>
<path d="M42.302 217.919L47.2294 212.992C48.6391 211.582 48.6391 209.296 47.2294 207.884C45.8189 206.474 43.5321 206.474 42.1216 207.884L37.1948 212.812C35.7843 214.223 35.7843 216.509 37.1948 217.919C38.6053 219.33 40.8915 219.33 42.302 217.919Z" fill="#ECECEC"/>
<path d="M109.583 266.747L112.71 260.52C113.606 258.737 112.886 256.567 111.103 255.672C109.321 254.776 107.151 255.496 106.255 257.278L103.128 263.505C102.234 265.288 102.953 267.459 104.735 268.353C106.518 269.249 108.688 268.529 109.583 266.747Z" fill="#ECECEC"/>
<path d="M66.4559 204.01L70.1611 203.48C72.1358 203.198 73.5069 201.368 73.2248 199.393C72.9422 197.418 71.112 196.048 69.1382 196.33L65.433 196.86C63.4583 197.143 62.0867 198.972 62.3698 200.947C62.6519 202.921 64.4817 204.292 66.4559 204.01Z" fill="#ECECEC"/>
<path d="M37.0577 252.89L36.5275 249.185C36.2447 247.21 34.4152 245.839 32.4412 246.121C30.4665 246.403 29.095 248.234 29.3777 250.208L29.9074 253.914C30.1901 255.887 32.0196 257.259 33.9943 256.977C35.9684 256.694 37.3405 254.864 37.0577 252.89Z" fill="#ECECEC"/>
<path d="M116.49 247.312V239.11C116.49 238.346 115.872 237.728 115.108 237.728H110.648C109.886 237.728 109.267 238.346 109.267 239.11V247.312C109.267 248.074 109.886 248.693 110.648 248.693H115.108C115.872 248.693 116.49 248.074 116.49 247.312Z" fill="#ECECEC"/>
<path d="M59.7508 284.284L63.3662 285.253C65.293 285.769 67.2729 284.626 67.7892 282.699C68.3054 280.773 67.1621 278.792 65.2354 278.276L61.6199 277.308C59.6937 276.791 57.7132 277.934 57.197 279.861C56.6808 281.788 57.8241 283.768 59.7508 284.284Z" fill="#ECECEC"/>
<path d="M42.8017 271.112C59.0738 287.385 85.4568 287.385 101.73 271.112C118.003 254.84 118.003 228.457 101.73 212.184C85.4568 195.912 59.0738 195.912 42.8017 212.184C26.5289 228.457 26.5289 254.84 42.8017 271.112Z" fill="#ECECEC"/>
<path d="M87.4243 216.928C87.5711 218.874 86.9699 220.882 85.8833 222.584C84.8019 224.305 83.1755 225.679 81.3548 226.585C79.491 227.475 77.2155 227.79 75.2355 227.106C73.2603 226.481 71.608 225.167 70.5732 223.524C72.1487 224.637 73.8499 225.437 75.5742 225.727C76.4344 225.869 77.2961 225.888 78.1308 225.73C78.9733 225.632 79.7769 225.307 80.5579 224.95C80.9475 224.755 81.3433 224.545 81.7228 224.322C82.0845 224.071 82.4679 223.845 82.8061 223.564C83.5363 223.058 84.1374 222.405 84.7424 221.747C85.903 220.385 86.8217 218.761 87.4243 216.928Z" fill="#C8C8C8"/>
<path d="M72.4467 219.325C72.2264 217.982 72.5853 216.554 73.3136 215.341C74.0414 214.12 75.1645 213.113 76.4503 212.49C77.7629 211.842 79.4123 211.662 80.7964 212.176C82.1815 212.656 83.2983 213.631 83.9163 214.835C82.7577 214.162 81.5914 213.7 80.4586 213.556C79.3231 213.395 78.258 213.656 77.2476 214.126C75.1506 215.135 73.5036 216.864 72.4467 219.325Z" fill="#C8C8C8"/>
<path d="M58.3307 247.947C58.8651 249.159 58.8603 250.599 58.4377 251.917C58.0078 253.238 57.1553 254.45 56.0298 255.29C54.8946 256.181 53.3364 256.623 51.9264 256.396C50.5221 256.189 49.2743 255.492 48.4337 254.478C49.6816 254.855 50.8838 255.05 51.9935 254.978C53.1071 254.905 54.0695 254.487 54.9258 253.844C55.8143 253.176 56.5604 252.336 57.1385 251.357C57.7041 250.367 58.11 249.232 58.3307 247.947Z" fill="#C8C8C8"/>
<path d="M49.7051 252.675C49.2191 251.861 49.1653 250.835 49.4201 249.882C49.6892 248.927 50.2932 248.047 51.0944 247.446C51.9129 246.803 53.0663 246.489 54.0757 246.692C55.0774 246.889 55.9343 247.435 56.4419 248.23C55.527 248.078 54.7166 248.017 54.0075 248.121C53.2989 248.22 52.7367 248.491 52.1993 248.892C51.0652 249.759 50.2462 250.907 49.7051 252.675Z" fill="#C8C8C8"/>
<path d="M43.3892 238.674C44.1197 239.322 44.5426 240.296 44.5771 241.35C44.6053 242.413 44.1818 243.507 43.3975 244.293C42.6018 245.147 41.3544 245.471 40.3469 245.339C39.3195 245.216 38.408 244.781 37.7267 244.085C38.6882 244.075 39.5543 244.071 40.3162 243.909C41.0793 243.757 41.6672 243.476 42.1041 243.014C42.58 242.534 42.9523 241.918 43.1589 241.203C43.3796 240.478 43.4282 239.633 43.3892 238.674Z" fill="#C8C8C8"/>
<path d="M38.2261 242.721C37.6184 242.33 37.2557 241.646 37.1911 240.876C37.1342 240.096 37.4303 239.276 38.0137 238.692C38.6131 238.048 39.5669 237.82 40.2916 237.956C41.0337 238.085 41.6612 238.451 42.0802 239.038C41.381 239.158 40.7982 239.231 40.3223 239.386C39.8419 239.535 39.5477 239.72 39.3072 239.971C39.0321 240.249 38.7871 240.592 38.6093 241.023C38.418 241.464 38.3099 242.017 38.2261 242.721Z" fill="#C8C8C8"/>
<path d="M100.484 226.333C100.6 227.302 100.269 228.311 99.5949 229.121C98.9098 229.935 97.8668 230.471 96.7571 230.538C95.5946 230.648 94.448 230.061 93.7826 229.293C93.097 228.518 92.7045 227.588 92.6575 226.615C93.3829 227.246 94.0335 227.818 94.7099 228.204C95.3811 228.597 96.0072 228.777 96.6405 228.722C97.3155 228.68 98.003 228.467 98.632 228.07C99.2792 227.675 99.876 227.075 100.484 226.333Z" fill="#C8C8C8"/>
<path d="M93.9375 225.927C93.7432 225.231 93.926 224.478 94.3889 223.861C94.8644 223.241 95.6306 222.824 96.4558 222.775C97.3308 222.691 98.1944 223.155 98.6468 223.738C99.1155 224.327 99.341 225.018 99.2647 225.734C98.6626 225.36 98.1786 225.028 97.7199 224.828C97.2613 224.619 96.9192 224.562 96.5723 224.59C96.1823 224.615 95.7716 224.709 95.3518 224.913C94.9157 225.115 94.4671 225.458 93.9375 225.927Z" fill="#C8C8C8"/>
<path d="M77.1234 254.641C81.7545 256.706 87.1931 254.606 89.2695 249.949C91.3459 245.293 89.2752 239.843 84.6441 237.778C80.0125 235.712 74.5749 237.813 72.4975 242.47C70.4206 247.126 72.4922 252.575 77.1234 254.641Z" fill="#DCDCDC"/>
<path d="M85.2001 241.868C87.7232 242.994 89.4134 245.225 89.9473 247.746C90.6444 243.69 88.5642 239.522 84.6426 237.773C80.0139 235.709 74.572 237.81 72.4961 242.465C70.9987 245.824 71.6546 249.593 73.8811 252.206C73.2301 250.286 73.2781 248.128 74.1728 246.12C76.0554 241.901 80.9955 239.992 85.2001 241.868Z" fill="#C8C8C8"/>
<path d="M93.618 247.758C93.7115 250.147 92.9314 252.581 91.5814 254.643C90.2362 256.724 88.2523 258.388 86.0315 259.489C83.7671 260.572 81.0238 260.963 78.6096 260.163C76.2008 259.43 74.1546 257.869 72.8137 255.901C74.6948 257.338 76.7899 258.386 78.9474 258.784C79.4862 258.893 80.0293 258.912 80.5661 258.954C81.1039 258.923 81.6436 258.954 82.169 258.826C83.2355 258.708 84.2497 258.3 85.2342 257.854C85.723 257.608 86.2167 257.343 86.6907 257.062C87.1431 256.746 87.6234 256.464 88.0451 256.107C88.9509 255.464 89.7017 254.642 90.4415 253.806C91.8654 252.086 92.9617 250.035 93.618 247.758Z" fill="#C8C8C8"/>
<path d="M103.703 251.263C105.546 251.69 107.388 250.533 107.816 248.68C108.245 246.827 107.098 244.979 105.255 244.553C103.412 244.126 101.571 245.283 101.142 247.136C100.713 248.989 101.859 250.837 103.703 251.263Z" fill="#DCDCDC"/>
<path d="M105.75 246.011C106.754 246.243 107.532 246.94 107.907 247.825C107.874 246.29 106.815 244.912 105.255 244.551C103.412 244.125 101.57 245.282 101.141 247.134C100.832 248.471 101.34 249.805 102.342 250.603C101.967 249.945 101.831 249.152 102.015 248.353C102.404 246.674 104.077 245.624 105.75 246.011Z" fill="#C8C8C8"/>
<path d="M109.252 247.568C109.505 248.434 109.417 249.401 109.078 250.273C108.744 251.153 108.126 251.923 107.379 252.496C106.61 253.067 105.598 253.411 104.636 253.27C103.682 253.155 102.818 252.696 102.214 252.032C103.033 252.384 103.871 252.587 104.67 252.56C105.47 252.54 106.203 252.243 106.833 251.769C108.134 250.802 109.002 249.336 109.252 247.568Z" fill="#C8C8C8"/>
<path d="M80.0676 273.564C82.7514 273.708 85.0447 271.636 85.1895 268.938C85.334 266.239 83.2753 263.934 80.5906 263.791C77.9068 263.647 75.6135 265.718 75.4686 268.417C75.3242 271.116 77.3834 273.42 80.0676 273.564Z" fill="#DCDCDC"/>
<path d="M81.6422 265.71C83.1045 265.788 84.3644 266.572 85.107 267.719C84.682 265.578 82.8622 263.91 80.5896 263.789C77.9068 263.645 75.6121 265.718 75.4677 268.415C75.3631 270.362 76.4027 272.103 78.0008 272.974C77.3138 272.147 76.9286 271.07 76.9914 269.907C77.1219 267.461 79.205 265.579 81.6422 265.71Z" fill="#C8C8C8"/>
<path d="M86.9258 267.028C87.4018 268.197 87.491 269.544 87.2036 270.816C86.9292 272.097 86.2647 273.292 85.3767 274.255C84.4647 275.218 83.189 275.928 81.8481 275.994C80.5196 276.099 79.219 275.703 78.1731 275.006C79.3687 275.382 80.6122 275.492 81.7593 275.29C82.9126 275.093 83.9221 274.476 84.7122 273.635C85.5211 272.779 86.1381 271.752 86.5219 270.63C86.8903 269.504 87.0573 268.276 86.9258 267.028Z" fill="#C8C8C8"/>
<path d="M58.2668 226.364C56.0638 229.736 51.1899 230.45 47.3819 227.961C43.5739 225.471 42.2728 220.722 44.4765 217.351C46.6795 213.979 51.5526 213.264 55.3614 215.753C59.1693 218.243 60.4699 222.993 58.2668 226.364Z" fill="#DCDCDC"/>
<path d="M46.1525 220.508C44.9525 222.345 44.8949 224.634 45.7944 226.659C43.2561 224.037 42.6087 220.201 44.4747 217.347C46.6771 213.977 51.5536 213.262 55.36 215.75C58.1062 217.545 59.5507 220.514 59.3094 223.295C58.7965 221.653 57.6725 220.126 56.0312 219.055C52.5808 216.798 48.1531 217.448 46.1525 220.508Z" fill="#C8C8C8"/>
<path d="M60.9535 220.795C62.0532 222.461 62.4893 224.638 62.0311 226.74C61.8296 227.802 61.3033 228.788 60.6724 229.659C60.0391 230.545 59.2034 231.225 58.287 231.851C57.3179 232.37 56.2788 232.766 55.2103 232.895C54.1472 233.002 53.0821 233.019 52.0689 232.803C50.0371 232.442 48.1425 231.62 46.5529 230.411C48.4663 230.936 50.3633 231.317 52.2224 231.392C54.0767 231.469 55.8786 231.16 57.3558 230.289C58.062 229.834 58.7802 229.278 59.3267 228.592C59.9086 227.936 60.3625 227.178 60.6724 226.346C61.2817 224.679 61.3508 222.736 60.9535 220.795Z" fill="#C8C8C8"/>
<path d="M247.395 217.406L250.919 218.058L251.706 221.772L252.494 218.058L256.017 217.404L252.509 216.546L251.706 213.038L250.903 216.546L247.395 217.406Z" fill="#C8C8C8"/>
<path d="M102.006 197.351L105.529 198.003L106.317 201.717L107.105 198.003L110.628 197.349L107.119 196.492L106.317 192.984L105.514 196.492L102.006 197.351Z" fill="#C8C8C8"/>
<path d="M211.402 157.642L214.926 158.293L215.713 162.008L216.501 158.293L220.024 157.64L216.515 156.783L215.713 153.274L214.91 156.783L211.402 157.642Z" fill="#C8C8C8"/>
<path d="M280.89 195.54L282.86 195.904L283.3 197.979L283.74 195.904L285.71 195.538L283.749 195.059L283.3 193.099L282.851 195.059L280.89 195.54Z" fill="#C8C8C8"/>
<path d="M131.433 274.54L133.402 274.904L133.842 276.98L134.282 274.904L136.252 274.539L134.291 274.061L133.842 272.099L133.393 274.061L131.433 274.54Z" fill="#C8C8C8"/>
<path d="M276.072 102.084L278.042 102.448L278.482 104.524L278.922 102.448L280.891 102.083L278.931 101.604L278.482 99.6428L278.033 101.604L276.072 102.084Z" fill="#C8C8C8"/>
<path d="M43.7479 146.741L45.7174 147.105L46.1576 149.181L46.5976 147.105L48.5671 146.74L46.6059 146.261L46.1576 144.3L45.7085 146.261L43.7479 146.741Z" fill="#C8C8C8"/>
<path d="M54.3146 252.412L56.284 252.776L56.7244 254.851L57.1648 252.776L59.1338 252.41L57.1725 251.932L56.7244 249.971L56.2758 251.932L54.3146 252.412Z" fill="#C8C8C8"/>
<path d="M268.472 154.674L270.442 155.038L270.882 157.114L271.322 155.038L273.292 154.673L271.33 154.194L270.882 152.233L270.433 154.194L268.472 154.674Z" fill="#C8C8C8"/>
<path d="M185.399 221.772L187.369 222.136L187.809 224.212L188.249 222.136L190.219 221.771L188.257 221.292L187.809 219.331L187.36 221.292L185.399 221.772Z" fill="#C8C8C8"/>
<path d="M113.73 55.0567L115.699 55.4209L116.139 57.4963L116.579 55.4209L118.549 55.0553L116.587 54.5765L116.139 52.6152L115.691 54.5765L113.73 55.0567Z" fill="#C8C8C8"/>
<path d="M190.832 214.23L192.801 214.594L193.241 216.67L193.682 214.594L195.651 214.229L193.69 213.749L193.241 211.789L192.792 213.749L190.832 214.23Z" fill="#C8C8C8"/>
<path d="M126.774 279.03C127.508 279.03 127.509 280.172 126.774 280.172C126.039 280.172 126.038 279.03 126.774 279.03Z" fill="#C8C8C8"/>
<path d="M228.614 171.955C229.348 171.955 229.349 173.096 228.614 173.096C227.879 173.096 227.878 171.955 228.614 171.955Z" fill="#C8C8C8"/>
<path d="M179.907 220.061C180.642 220.061 180.642 221.203 179.907 221.203C179.172 221.203 179.171 220.061 179.907 220.061Z" fill="#C8C8C8"/>
<path d="M95.2271 274.748C95.9621 274.748 95.9635 275.889 95.2271 275.889C94.4931 275.889 94.4916 274.748 95.2271 274.748Z" fill="#C8C8C8"/>
<path d="M285.814 282.313C286.548 282.313 286.55 283.454 285.814 283.454C285.08 283.454 285.078 282.313 285.814 282.313Z" fill="#C8C8C8"/>
<path d="M255.78 179.435C256.515 179.435 256.516 180.577 255.78 180.577C255.046 180.577 255.045 179.435 255.78 179.435Z" fill="#C8C8C8"/>
<path d="M141.074 268.763C141.594 268.763 141.595 269.571 141.074 269.571C140.555 269.571 140.554 268.763 141.074 268.763Z" fill="#C8C8C8"/>
<path d="M60.4244 59.0585C60.9439 59.0585 60.9454 59.8664 60.4244 59.8664C59.9052 59.8664 59.9038 59.0585 60.4244 59.0585Z" fill="#C8C8C8"/>
<path d="M216.187 188.866C216.706 188.866 216.708 189.674 216.187 189.674C215.668 189.674 215.667 188.866 216.187 188.866Z" fill="#C8C8C8"/>
<path d="M196.678 223.809C197.197 223.809 197.198 224.617 196.678 224.617C196.158 224.617 196.157 223.809 196.678 223.809Z" fill="#C8C8C8"/>
<path d="M164.727 217.001C165.247 217.001 165.247 217.809 164.727 217.809C164.208 217.809 164.207 217.001 164.727 217.001Z" fill="#C8C8C8"/>
<path d="M202.498 181.527C203.906 181.527 203.909 183.716 202.498 183.716C201.089 183.716 201.087 181.527 202.498 181.527Z" fill="#C8C8C8"/>
<path d="M146.48 70.9843L150.004 71.6358L150.791 75.3501L151.579 71.6358L155.102 70.9824L151.594 70.1251L150.791 66.6166L149.989 70.1251L146.48 70.9843Z" fill="#C8C8C8"/>
<path d="M159.908 38.8269L161.877 39.1908L162.317 41.2672L162.758 39.1908L164.727 38.8256L162.766 38.3471L162.317 36.3859L161.868 38.3471L159.908 38.8269Z" fill="#C8C8C8"/>
<path d="M40.5177 92.1178C41.2521 92.1178 41.2534 93.2596 40.5177 93.2596C39.7834 93.2596 39.7815 92.1178 40.5177 92.1178Z" fill="#C8C8C8"/>
<path d="M49.4868 243.527C50.2218 243.527 50.2232 244.669 49.4868 244.669C48.7523 244.669 48.7513 243.527 49.4868 243.527Z" fill="#C8C8C8"/>
<path d="M34.026 271.846C34.761 271.846 34.7616 272.988 34.026 272.988C33.2916 272.988 33.2903 271.846 34.026 271.846Z" fill="#C8C8C8"/>
<path d="M63.2611 139.977C63.9957 139.977 63.9971 141.119 63.2611 141.119C62.5271 141.119 62.5257 139.977 63.2611 139.977Z" fill="#C8C8C8"/>
<path d="M34.026 41.4327C34.7603 41.4327 34.7616 42.5746 34.026 42.5746C33.2916 42.5746 33.2903 41.4327 34.026 41.4327Z" fill="#C8C8C8"/>
<path d="M85.8521 216.31C86.3712 216.31 86.3727 217.118 85.8521 217.118C85.3326 217.118 85.3311 216.31 85.8521 216.31Z" fill="#C8C8C8"/>
<path d="M171.044 268.078C171.563 268.078 171.564 268.886 171.044 268.886C170.524 268.886 170.524 268.078 171.044 268.078Z" fill="#C8C8C8"/>
<path d="M231.024 83.308C231.543 83.308 231.544 84.1159 231.024 84.1159C230.504 84.1159 230.504 83.308 231.024 83.308Z" fill="#C8C8C8"/>
<path d="M158.067 58.5768C158.587 58.5768 158.587 59.3847 158.067 59.3847C157.547 59.3847 157.547 58.5768 158.067 58.5768Z" fill="#C8C8C8"/>
<path d="M133.843 201.96C135.252 201.96 135.255 204.149 133.843 204.149C132.435 204.149 132.432 201.96 133.843 201.96Z" fill="#C8C8C8"/>
<path d="M277.999 119.27C279.407 119.27 279.41 121.459 277.999 121.459C276.59 121.459 276.587 119.27 277.999 119.27Z" fill="#C8C8C8"/>
<path d="M54.0349 215.216C55.4435 215.216 55.4459 217.405 54.0349 217.405C52.6264 217.405 52.6235 215.216 54.0349 215.216Z" fill="#C8C8C8"/>
<path d="M145.972 173.097L147.942 173.461L148.382 175.537L148.822 173.461L150.791 173.096L148.83 172.617L148.382 170.656L147.933 172.617L145.972 173.097Z" fill="#C8C8C8"/>
<path d="M187.809 272.418L189.778 272.782L190.219 274.858L190.659 272.782L192.628 272.417L190.668 271.938L190.219 269.977L189.77 271.938L187.809 272.418Z" fill="#C8C8C8"/>
<path d="M196.533 246.84C197.268 246.84 197.269 247.982 196.533 247.982C195.799 247.982 195.798 246.84 196.533 246.84Z" fill="#C8C8C8"/>
<path d="M218.783 231.656C219.518 231.656 219.519 232.798 218.783 232.798C218.049 232.798 218.048 231.656 218.783 231.656Z" fill="#C8C8C8"/>
<path d="M148.382 257.875L150.351 258.239L150.791 260.314L151.231 258.239L153.201 257.873L151.24 257.395L150.791 255.434L150.342 257.395L148.382 257.875Z" fill="#C8C8C8"/>
<path d="M229.454 74.0011C230.188 74.0011 230.19 75.1429 229.454 75.1429C228.72 75.1429 228.718 74.0011 229.454 74.0011Z" fill="#C8C8C8"/>
<path d="M243.188 233.457C243.708 233.457 243.708 234.264 243.188 234.264C242.668 234.264 242.667 233.457 243.188 233.457Z" fill="#C8C8C8"/>
<path d="M71.336 164.793L73.3059 165.157L73.7458 167.233L74.1858 165.157L76.1557 164.793L74.1944 164.313L73.7458 162.352L73.2968 164.313L71.336 164.793Z" fill="#C8C8C8"/>
<path d="M48.5675 196.209C49.3021 196.209 49.303 197.35 48.5675 197.35C47.8332 197.35 47.8319 196.209 48.5675 196.209Z" fill="#C8C8C8"/>
<path d="M127.325 154.162C128.059 154.162 128.061 155.304 127.325 155.304C126.59 155.304 126.589 154.162 127.325 154.162Z" fill="#C8C8C8"/>
<path d="M60.4244 96.4855C60.9439 96.4855 60.9454 97.2934 60.4244 97.2934C59.9052 97.2934 59.9038 96.4855 60.4244 96.4855Z" fill="#C8C8C8"/>
<path d="M55.252 92.7717C56.6606 92.7717 56.6635 94.9609 55.252 94.9609C53.8435 94.9609 53.8411 92.7717 55.252 92.7717Z" fill="#C8C8C8"/>
<path d="M279.056 44.4509C280.465 44.4509 280.467 46.6406 279.056 46.6406C277.648 46.6406 277.645 44.4509 279.056 44.4509Z" fill="#C8C8C8"/>
<path d="M219.012 260.016C224.554 270.109 237.228 273.8 247.321 268.258C257.414 262.718 261.105 250.043 255.564 239.95C250.023 229.856 237.348 226.166 227.256 231.707C217.162 237.248 213.472 249.923 219.012 260.016Z" fill="#375A64"/>
<path d="M217.888 257.629C218.828 256.648 220.765 254.835 224.046 253.063C228.02 250.915 239.064 248.028 244.037 244.99C251.033 240.723 251.623 236.688 251.417 234.644C249.42 232.808 247.111 231.404 244.625 230.47C244.276 232.615 242.85 239.326 231.083 244.575C225.009 247.279 218.905 246.291 216.834 245.958C216.076 249.779 216.383 253.826 217.888 257.629Z" fill="#2B454E"/>
<path d="M227.284 268.279C233.316 271.57 240.848 271.812 247.319 268.26C249.589 267.013 251.534 265.409 253.124 263.552C252.275 263.148 250.559 262.577 249.276 262.374C243.581 261.464 237.644 264.633 235.499 266.075C232.067 268.386 228.955 268.457 227.284 268.279Z" fill="#2B454E"/>
<path d="M219.375 260.648C219.47 260.813 219.57 260.972 219.672 261.133C219.76 261.28 219.856 261.424 219.952 261.568C220.169 261.891 220.39 262.209 220.622 262.517C220.83 262.794 221.045 263.069 221.266 263.331C221.346 263.432 221.432 263.525 221.516 263.624C221.61 263.734 221.705 263.844 221.801 263.949C221.899 264.058 221.997 264.166 222.096 264.269C222.211 264.393 222.331 264.52 222.453 264.64C222.571 264.763 222.693 264.883 222.816 264.999C222.924 265.102 223.03 265.202 223.135 265.301C223.372 265.521 223.61 265.73 223.856 265.937L223.861 265.939C225.185 266.231 226.904 265.917 229.36 264.713C233.013 262.93 236.797 259.037 243.881 255.83C250.57 252.798 256.404 253.704 257.78 253.805L257.784 253.803C258.552 249.69 258.091 245.327 256.237 241.289C254.906 241.347 250.679 242.298 242.184 250.552C238.954 253.688 236.066 255.952 233.516 257.565C226.062 262.27 221.466 261.422 219.51 260.63L219.507 260.632C219.462 260.635 219.418 260.641 219.375 260.648Z" fill="#2B454E"/>
<path d="M238.277 237.931C238.722 238.744 240.041 238.876 241.221 238.227C242.401 237.579 242.998 236.397 242.552 235.585C242.106 234.773 240.788 234.64 239.608 235.288C238.427 235.936 237.831 237.119 238.277 237.931Z" fill="#1A2E35"/>
<path d="M244.288 238.874C244.539 239.331 245.316 239.387 246.025 238.997C246.733 238.609 247.104 237.923 246.853 237.466C246.602 237.008 245.824 236.952 245.116 237.341C244.408 237.73 244.036 238.416 244.288 238.874Z" fill="#1A2E35"/>
<path d="M230.51 265.839C230.89 266.533 232.037 266.635 233.069 266.068C234.102 265.502 234.63 264.48 234.251 263.786C233.87 263.092 232.724 262.99 231.691 263.557C230.658 264.124 230.128 265.146 230.51 265.839Z" fill="#1A2E35"/>
<path d="M234.398 266.209C234.6 266.577 235.159 266.66 235.647 266.393C236.133 266.125 236.363 265.61 236.161 265.24C235.958 264.871 235.4 264.789 234.914 265.056C234.426 265.324 234.196 265.84 234.398 266.209Z" fill="#1A2E35"/>
<path d="M234.84 264.227C234.962 264.449 235.311 264.49 235.622 264.32C235.932 264.15 236.084 263.833 235.962 263.611C235.841 263.389 235.491 263.348 235.181 263.518C234.871 263.688 234.719 264.005 234.84 264.227Z" fill="#1A2E35"/>
<path d="M247.793 262.993C248.133 263.613 249.079 263.747 249.905 263.293C250.732 262.84 251.126 261.969 250.786 261.35C250.445 260.73 249.499 260.595 248.673 261.049C247.847 261.503 247.453 262.373 247.793 262.993Z" fill="#1A2E35"/>
<path d="M247.031 260.212C247.226 260.566 247.706 260.676 248.105 260.457C248.503 260.239 248.668 259.774 248.474 259.42C248.28 259.066 247.798 258.956 247.401 259.175C247.002 259.394 246.837 259.857 247.031 260.212Z" fill="#1A2E35"/>
<path d="M220.622 262.517C226.215 261.391 232.688 259.673 239.491 257.439C246.488 255.145 252.877 252.614 258.137 250.144C267.479 245.757 273.241 241.554 272.462 239.181C271.7 236.846 264.672 236.779 254.805 238.679C255.07 239.092 255.323 239.515 255.562 239.951C255.653 240.115 255.739 240.28 255.826 240.446C261.079 239.774 264.559 240.08 265.032 241.525C265.513 242.992 262.806 245.351 258.043 247.971C253.381 250.535 246.747 253.349 239.22 255.819C231.679 258.292 224.656 259.957 219.375 260.648C214.006 261.358 210.438 261.062 209.957 259.595C209.487 258.157 212.098 255.855 216.699 253.29C216.584 252.59 216.507 251.883 216.47 251.178C207.18 255.553 201.333 259.902 202.108 262.268C202.897 264.678 210.241 264.609 220.622 262.517Z" fill="#1A2E35"/>
<path d="M221.797 263.943C227.449 262.755 233.719 261.085 240.239 258.98L240.244 258.982C246.731 256.892 252.757 254.593 258.012 252.271C270.985 246.539 279.272 240.647 278.187 237.282C277.114 233.951 267.139 233.988 253.472 236.833C253.673 237.084 253.87 237.342 254.061 237.604C265.538 235.404 273.764 235.521 274.692 238.408C275.632 241.323 268.888 246.305 258.098 251.277C252.875 253.681 246.709 256.084 240.004 258.249C233.262 260.424 226.813 262.085 221.148 263.187C209.538 265.439 201.196 265.33 200.262 262.425C199.337 259.552 205.893 254.662 216.438 249.755C216.442 249.429 216.452 249.104 216.473 248.778C203.769 254.442 195.695 260.231 196.765 263.556C197.849 266.912 207.974 266.852 221.797 263.943Z" fill="#2B454E"/>
<path d="M158.196 145.34C155.414 151.539 148.134 154.312 141.934 151.53C135.735 148.749 132.963 141.469 135.744 135.269C138.525 129.069 145.805 126.298 152.005 129.079C158.205 131.86 160.976 139.14 158.196 145.34Z" fill="#ECECEC"/>
<path d="M158.744 143.882C158.145 143.35 156.919 142.375 154.905 141.488C152.465 140.414 145.832 139.239 142.763 137.688C138.446 135.51 137.908 133.164 137.932 131.951C139.02 130.777 140.311 129.841 141.729 129.174C142.035 130.419 143.193 134.3 150.364 136.83C154.064 138.132 157.608 137.261 158.811 136.967C159.437 139.178 159.448 141.574 158.744 143.882Z" fill="#DCDCDC"/>
<path d="M153.721 150.592C150.329 152.815 145.91 153.314 141.936 151.531C140.541 150.906 139.321 150.054 138.299 149.036C138.778 148.759 139.76 148.342 140.506 148.161C143.812 147.356 147.455 148.939 148.785 149.686C150.913 150.882 152.747 150.777 153.721 150.592Z" fill="#DCDCDC"/>
<path d="M158.012 145.729C157.964 145.831 157.913 145.929 157.861 146.028C157.815 146.119 157.766 146.208 157.716 146.297C157.604 146.498 157.489 146.696 157.367 146.887C157.258 147.06 157.145 147.232 157.027 147.397C156.984 147.46 156.938 147.519 156.894 147.581C156.844 147.65 156.793 147.719 156.742 147.786C156.69 147.854 156.637 147.922 156.583 147.988C156.521 148.066 156.456 148.147 156.391 148.222C156.327 148.301 156.262 148.377 156.195 148.452C156.136 148.517 156.078 148.581 156.021 148.644C155.892 148.785 155.762 148.92 155.627 149.052L155.625 149.053C154.859 149.287 153.833 149.185 152.332 148.594C150.098 147.718 147.688 145.608 143.369 144.057C139.29 142.59 135.902 143.399 135.097 143.524L135.095 143.524C134.448 141.141 134.512 138.552 135.411 136.089C136.197 136.06 138.728 136.42 144.117 140.871C146.165 142.563 147.971 143.758 149.547 144.585C154.156 147 156.819 146.284 157.932 145.725L157.934 145.725C157.961 145.725 157.986 145.727 158.012 145.729Z" fill="#DCDCDC"/>
<path d="M146.32 150.359C146.537 149.858 147.305 149.71 148.034 150.027C148.763 150.345 149.176 151.008 148.957 151.509C148.74 152.01 147.972 152.159 147.243 151.841C146.514 151.524 146.101 150.86 146.32 150.359Z" fill="#C8C8C8"/>
<path d="M149.802 149.484C149.925 149.202 150.378 149.127 150.815 149.318C151.253 149.509 151.508 149.892 151.385 150.174C151.261 150.457 150.807 150.531 150.37 150.34C149.933 150.15 149.679 149.766 149.802 149.484Z" fill="#C8C8C8"/>
<path d="M140.26 134.374C140.446 133.946 141.114 133.824 141.752 134.102C142.389 134.38 142.755 134.952 142.567 135.381C142.381 135.809 141.713 135.93 141.076 135.653C140.438 135.374 140.073 134.802 140.26 134.374Z" fill="#C8C8C8"/>
<path d="M142.525 133.949C142.624 133.721 142.948 133.643 143.249 133.774C143.55 133.905 143.712 134.196 143.613 134.424C143.514 134.651 143.19 134.729 142.889 134.599C142.589 134.468 142.425 134.176 142.525 133.949Z" fill="#C8C8C8"/>
<path d="M142.891 135.09C142.95 134.953 143.154 134.91 143.345 134.993C143.536 135.076 143.643 135.255 143.584 135.392C143.524 135.528 143.321 135.572 143.129 135.488C142.938 135.405 142.831 135.226 142.891 135.09Z" fill="#C8C8C8"/>
<path d="M150.569 135.121C150.736 134.739 151.284 134.609 151.795 134.831C152.305 135.053 152.582 135.544 152.416 135.926C152.249 136.309 151.701 136.439 151.191 136.216C150.681 135.994 150.402 135.504 150.569 135.121Z" fill="#C8C8C8"/>
<path d="M150.27 136.796C150.366 136.578 150.643 136.488 150.888 136.594C151.134 136.702 151.256 136.966 151.161 137.185C151.066 137.403 150.79 137.493 150.543 137.386C150.297 137.279 150.175 137.015 150.27 136.796Z" fill="#C8C8C8"/>
<path d="M71.835 59.8097C69.0543 66.0097 61.7734 68.7813 55.574 66.0006C49.3735 63.2194 46.6026 55.939 49.3831 49.7391C52.1638 43.5395 59.4442 40.7678 65.6441 43.5491C71.8445 46.3298 74.6156 53.6098 71.835 59.8097Z" fill="#BD2A26"/>
<g opacity="0.100006">
<g opacity="0.100006">
<path opacity="0.100006" d="M71.835 59.8097C69.0543 66.0097 61.7734 68.7813 55.574 66.0006C49.3735 63.2194 46.6026 55.939 49.3831 49.7391C52.1638 43.5395 59.4442 40.7678 65.6441 43.5491C71.8445 46.3298 74.6156 53.6098 71.835 59.8097Z" fill="#BD2A26"/>
</g>
</g>
<g opacity="0.100006">
<g opacity="0.100006">
<path opacity="0.100006" d="M72.3833 58.3523C71.7831 57.8197 70.5578 56.8454 68.5438 55.9588C66.1047 54.8836 59.4715 53.7092 56.402 52.1576C52.0842 49.9795 51.5464 47.634 51.5708 46.4217C52.658 45.2473 53.9504 44.3115 55.3677 43.6449C55.6747 44.8891 56.8319 48.77 64.0029 51.2998C67.7033 52.6019 71.2472 51.7311 72.45 51.437C73.0766 53.6487 73.0876 56.0437 72.3833 58.3523Z" fill="#BD2A26"/>
</g>
<g opacity="0.100006">
<path opacity="0.100006" d="M67.3602 65.0627C63.9688 67.284 59.5497 67.7839 55.5744 66.0011C54.1803 65.3755 52.9598 64.5239 51.9379 63.5068C52.4176 63.2291 53.3992 62.8117 54.1448 62.6313C57.4517 61.8262 61.0941 63.409 62.424 64.1555C64.5527 65.3525 66.3863 65.2469 67.3602 65.0627Z" fill="#BD2A26"/>
</g>
<g opacity="0.100006">
<path opacity="0.100006" d="M71.6517 60.1989C71.6037 60.3006 71.5524 60.3985 71.5006 60.4983C71.4545 60.5894 71.4051 60.6782 71.3562 60.7669C71.2434 60.9684 71.1288 61.1656 71.0069 61.3575C70.8975 61.5307 70.7843 61.7025 70.6663 61.8665C70.6241 61.9299 70.578 61.9889 70.5334 62.0517C70.483 62.1198 70.4322 62.1899 70.3813 62.2556C70.3285 62.3242 70.2762 62.3923 70.223 62.4576C70.1606 62.5363 70.0958 62.6164 70.0301 62.6932C69.9668 62.7714 69.9006 62.8481 69.8334 62.9215C69.7754 62.9868 69.7178 63.0506 69.6602 63.1139C69.5316 63.255 69.4012 63.3898 69.2668 63.5227L69.2635 63.5236C68.4992 63.7582 67.472 63.6551 65.9713 63.064C63.7366 62.188 61.3273 60.0775 57.008 58.5269C52.93 57.0603 49.5415 57.8692 48.7364 57.9939L48.7345 57.9934C48.0878 55.6105 48.1511 53.0217 49.0502 50.5591C49.8365 50.5303 52.3677 50.8896 57.7559 55.3413C59.8045 57.0334 61.6103 58.2276 63.1873 59.0561C67.7949 61.4707 70.4581 60.7535 71.5716 60.1946L71.5735 60.196C71.5999 60.195 71.6258 60.197 71.6517 60.1989Z" fill="#BD2A26"/>
</g>
</g>
<g opacity="0.100006">
<g opacity="0.100006">
<path opacity="0.100006" d="M59.9585 64.8295C60.1768 64.3286 60.9448 64.1804 61.6726 64.4975C62.4014 64.8156 62.8145 65.4786 62.5967 65.9795C62.3784 66.4804 61.6108 66.6291 60.882 66.311C60.1537 65.9939 59.7402 65.3304 59.9585 64.8295Z" fill="black"/>
</g>
<g opacity="0.100006">
<path opacity="0.100006" d="M63.441 63.9535C63.5638 63.6714 64.0182 63.5966 64.4548 63.7875C64.8923 63.978 65.1471 64.3618 65.0238 64.6439C64.9009 64.926 64.4466 65.0004 64.0095 64.8094C63.572 64.6194 63.3182 64.2356 63.441 63.9535Z" fill="black"/>
</g>
<g opacity="0.100006">
<path opacity="0.100006" d="M53.8986 48.8439C54.0857 48.416 54.7536 48.2946 55.3912 48.5724C56.0283 48.8506 56.3934 49.4225 56.2072 49.8504C56.0206 50.2784 55.3528 50.4002 54.7152 50.122C54.0781 49.8437 53.712 49.2719 53.8986 48.8439Z" fill="black"/>
</g>
<g opacity="0.100006">
<path opacity="0.100006" d="M56.1641 48.4189C56.2634 48.1915 56.5877 48.1128 56.8875 48.2442C57.1883 48.3747 57.3515 48.6659 57.2522 48.8938C57.1533 49.1212 56.8295 49.1994 56.5287 49.0685C56.2283 48.938 56.0652 48.6468 56.1641 48.4189Z" fill="black"/>
</g>
<g opacity="0.100006">
<path opacity="0.100006" d="M56.5301 49.5598C56.5896 49.4235 56.793 49.3798 56.9844 49.4633C57.1759 49.5463 57.2824 49.7248 57.2229 49.8615C57.1629 49.9987 56.96 50.0414 56.769 49.9584C56.5776 49.8745 56.4706 49.696 56.5301 49.5598Z" fill="black"/>
</g>
<g opacity="0.100006">
<path opacity="0.100006" d="M64.2087 49.5914C64.3756 49.2086 64.924 49.079 65.4335 49.3016C65.9435 49.5242 66.2218 50.0141 66.0553 50.3965C65.8883 50.7783 65.3404 50.9088 64.83 50.6862C64.32 50.4636 64.0417 49.9738 64.2087 49.5914Z" fill="black"/>
</g>
<g opacity="0.100006">
<path opacity="0.100006" d="M63.9103 51.2662C64.0053 51.0475 64.2816 50.9573 64.5272 51.0647C64.7738 51.1717 64.8957 51.4361 64.8007 51.6548C64.7052 51.8726 64.4289 51.9628 64.1828 51.8563C63.9371 51.7489 63.8148 51.4845 63.9103 51.2662Z" fill="black"/>
</g>
</g>
<path d="M149.457 78.5756C149 78.0373 122.684 65.8274 98.8532 84.0156C76.942 100.739 69.335 132.165 72.2442 132.917C75.8055 133.837 85.5681 118.839 104.306 110.6C110.95 107.679 121.529 110.598 121.529 110.598L149.457 78.5756Z" fill="#BD2A26"/>
<g opacity="0.100006">
<g opacity="0.100006">
<path opacity="0.100006" d="M121.531 110.597C121.531 110.597 116.944 109.329 111.914 109.303C116.043 100.655 123.76 84.5189 128.768 74.0707C140.56 74.1786 149.196 78.2676 149.455 78.5737L121.531 110.597Z" fill="black"/>
</g>
</g>
<path d="M192.808 129.707C193.265 130.246 201.005 158.204 179.164 178.739C159.081 197.619 126.835 199.984 126.568 196.991C126.243 193.328 142.636 186.149 153.829 169.011C157.798 162.935 156.649 152.022 156.649 152.022L192.808 129.707Z" fill="#BD2A26"/>
<g opacity="0.100006">
<g opacity="0.100006">
<path opacity="0.100006" d="M193.847 150.997C182.629 154.264 165.421 159.271 156.325 161.913C157.161 156.877 156.652 152.021 156.652 152.021L192.809 129.706C193.069 130.012 195.713 139.282 193.847 150.997Z" fill="black"/>
</g>
</g>
<path d="M131.538 163.887L105.837 133.572C105.837 133.572 119.239 97.6302 151.101 73.4853C167.01 61.4438 185.673 52.4282 202.382 46.4639C225.44 38.1986 244.737 35.8031 247.724 39.327C250.725 42.867 245.192 61.4956 233.28 82.9064C224.649 98.3988 212.703 115.336 198.22 129.062C169.188 156.544 131.538 163.887 131.538 163.887Z" fill="#C8C8C8"/>
<path d="M193.976 116.082C184.321 124.267 169.858 123.077 161.673 113.422C153.487 103.767 154.678 89.3039 164.333 81.1187C173.987 72.9326 188.45 74.1238 196.636 83.7785C204.821 93.4332 203.631 107.896 193.976 116.082Z" fill="#A8A8A8"/>
<path d="M195.229 113.951C185.574 122.137 171.111 120.946 162.926 111.291C154.74 101.637 155.931 87.1733 165.586 78.9881C175.241 70.802 189.703 71.9932 197.889 81.6479C206.074 91.3026 204.884 105.765 195.229 113.951Z" fill="#BD2A26"/>
<path d="M190.696 108.587C184.004 114.269 173.973 113.45 168.291 106.758C162.609 100.066 163.427 90.0351 170.12 84.3528C176.811 78.6706 186.843 79.49 192.525 86.1817C198.207 92.8738 197.388 102.905 190.696 108.587Z" fill="white"/>
<path d="M190.699 108.587C189.153 109.901 187.423 110.872 185.613 111.495L172.844 110.453C171.159 109.545 169.61 108.306 168.297 106.76C167.342 105.634 166.576 104.416 165.989 103.139L193.564 105.39C192.777 106.555 191.824 107.633 190.699 108.587Z" fill="#ECECEC"/>
<path d="M193.903 88.0735L168.453 85.9966C168.958 85.4185 169.515 84.8658 170.116 84.3544C176.813 78.6683 186.841 79.4872 192.528 86.1832C193.038 86.7853 193.498 87.421 193.903 88.0735Z" fill="#ECECEC"/>
<path d="M195.279 102.091L164.831 99.6059C164.731 99.1396 164.66 98.6761 164.612 98.1925L195.724 100.732C195.6 101.187 195.447 101.64 195.279 102.091Z" fill="#ECECEC"/>
<path d="M233.28 82.9064L202.382 46.4638C225.44 38.1985 244.736 35.8029 247.724 39.3276C250.725 42.8669 245.192 61.4957 233.28 82.9064Z" fill="#BD2A26"/>
<path d="M211.465 49.5453C210.901 50.0232 210.058 49.9531 209.58 49.3899C209.102 48.8262 209.171 47.9818 209.734 47.504C210.299 47.0262 211.142 47.0959 211.62 47.6594C212.098 48.2231 212.029 49.0675 211.465 49.5453Z" fill="white"/>
<path d="M216.961 56.0278C216.398 56.5066 215.554 56.4365 215.076 55.8733C214.599 55.3091 214.668 54.4652 215.231 53.9874C215.795 53.5095 216.639 53.5786 217.117 54.1428C217.595 54.7065 217.526 55.5499 216.961 56.0278Z" fill="white"/>
<path d="M222.458 62.5108C221.894 62.9886 221.05 62.9195 220.572 62.3553C220.094 61.7926 220.164 60.9482 220.728 60.4704C221.291 59.992 222.136 60.0621 222.614 60.6253C223.091 61.1895 223.022 62.0329 222.458 62.5108Z" fill="white"/>
<path d="M227.955 68.9938C227.391 69.4716 226.547 69.4025 226.069 68.8383C225.591 68.2751 225.661 67.4312 226.225 66.9534C226.788 66.4755 227.632 66.5446 228.11 67.1083C228.587 67.6725 228.518 68.5159 227.955 68.9938Z" fill="white"/>
<path d="M233.451 75.4768C232.888 75.9547 232.044 75.8851 231.566 75.3214C231.088 74.7582 231.158 73.9143 231.721 73.4359C232.284 72.9581 233.128 73.0277 233.606 73.5914C234.084 74.1546 234.015 74.999 233.451 75.4768Z" fill="white"/>
<path d="M113.252 132.863C112.688 133.341 111.844 133.271 111.366 132.708C110.888 132.144 110.958 131.3 111.522 130.822C112.085 130.344 112.929 130.414 113.407 130.977C113.885 131.542 113.815 132.386 113.252 132.863Z" fill="#A8A8A8"/>
<path d="M118.748 139.346C118.185 139.824 117.34 139.755 116.862 139.191C116.385 138.627 116.454 137.784 117.018 137.305C117.581 136.827 118.425 136.897 118.903 137.46C119.381 138.024 119.312 138.868 118.748 139.346Z" fill="#A8A8A8"/>
<path d="M124.245 145.829C123.681 146.308 122.837 146.238 122.359 145.674C121.881 145.11 121.951 144.266 122.514 143.788C123.078 143.311 123.923 143.38 124.4 143.943C124.878 144.508 124.808 145.351 124.245 145.829Z" fill="#A8A8A8"/>
<path d="M129.741 152.312C129.177 152.79 128.334 152.721 127.856 152.157C127.377 151.593 127.447 150.749 128.011 150.271C128.574 149.793 129.419 149.863 129.896 150.426C130.374 150.99 130.305 151.834 129.741 152.312Z" fill="#A8A8A8"/>
<path d="M135.238 158.795C134.674 159.273 133.83 159.204 133.352 158.639C132.874 158.076 132.944 157.232 133.507 156.754C134.071 156.276 134.915 156.346 135.393 156.909C135.871 157.474 135.801 158.317 135.238 158.795Z" fill="#A8A8A8"/>
<g opacity="0.199997">
<g opacity="0.199997">
<path opacity="0.199997" d="M246.277 38.4255C228.481 39.692 197.674 50.477 165.236 75.9105C141.274 94.6979 123.791 127.578 115.641 145.137L105.835 133.571C105.835 133.571 119.236 97.6278 151.099 73.4863C167.008 61.441 185.673 52.4282 202.382 46.4662C223.05 39.0524 240.686 36.3657 246.277 38.4255Z" fill="white"/>
</g>
</g>
<path d="M120.057 168.824L99.1578 144.17L107.286 135.287L130.151 162.256L120.057 168.824Z" fill="#BD2A26"/>
<g opacity="0.100006">
<g opacity="0.100006">
<path opacity="0.100006" d="M130.149 162.256L125.231 165.452L104.177 138.685L107.285 135.292L130.149 162.256Z" fill="black"/>
</g>
</g>
<path d="M232.951 86.2008L223.399 85.5642L218.913 94.6605L219.323 84.526L210.631 80.5114L220.279 80.6054L224.67 72.0518L224.435 81.6633L232.951 86.2008Z" fill="#FCFCFC"/>
<path d="M230.603 50.9275L225.264 50.5715L222.756 55.656L222.985 49.9915L218.128 47.7476L223.52 47.8L225.974 43.019L225.843 48.3915L230.603 50.9275Z" fill="#FCFCFC"/>
<path d="M187.415 159.365L182.076 159.009L179.568 164.093L179.798 158.428L174.941 156.184L180.333 156.237L182.787 151.456L182.655 156.829L187.415 159.365Z" fill="#FCFCFC"/>
<path d="M92.4071 112.187L87.0683 111.831L84.5601 116.915L84.7895 111.251L79.9319 109.007L85.3244 109.06L87.7788 104.278L87.6469 109.651L92.4071 112.187Z" fill="#FCFCFC"/>
<g opacity="0.600006">
<g opacity="0.600006">
<path opacity="0.600006" d="M115.461 163.321C105.773 169.854 97.2191 178.192 90.9736 188.146C84.7257 198.063 80.8478 209.618 80.4903 221.57C80.3363 227.532 81.0579 233.56 82.6737 239.407C84.2843 245.254 86.7901 250.914 90.0687 256.165C93.3445 261.419 97.386 266.261 101.974 270.588C106.562 274.921 111.688 278.743 117.142 282.088C111.341 279.398 105.741 276.17 100.542 272.296C95.3451 268.426 90.5538 263.904 86.435 258.746C82.3139 253.593 78.875 247.805 76.3471 241.571C73.8145 235.341 72.1977 228.675 71.5802 221.873C70.3803 208.244 73.2575 194.249 79.2199 181.769C85.1666 169.241 94.0911 158.209 104.618 149.167L115.461 163.321Z" fill="#BD2A26"/>
</g>
</g>
<path d="M98.891 178.18L95.0793 178.886L94.2273 182.904L93.3752 178.886L89.5626 178.179L93.3589 177.251L94.2273 173.455L95.0952 177.251L98.891 178.18Z" fill="white"/>
<path d="M84.8614 253.431L82.7308 253.825L82.2549 256.071L81.7789 253.825L79.6483 253.43L81.7693 252.912L82.2549 250.79L82.7404 252.912L84.8614 253.431Z" fill="white"/>
<path d="M83.7176 233.937L81.587 234.33L81.1111 236.577L80.6347 234.33L78.5046 233.935L80.6256 233.417L81.1111 231.296L81.5966 233.417L83.7176 233.937Z" fill="white"/>
<path d="M96.0734 165.655L93.9428 166.049L93.4669 168.295L92.991 166.049L90.8599 165.654L92.9818 165.135L93.4669 163.013L93.9524 165.135L96.0734 165.655Z" fill="white"/>
<path d="M89.9022 258.289C89.1068 258.289 89.1058 259.524 89.9022 259.524C90.6967 259.524 90.6977 258.289 89.9022 258.289Z" fill="white"/>
<path d="M107.532 162.643C106.737 162.643 106.735 163.879 107.532 163.879C108.326 163.879 108.328 162.643 107.532 162.643Z" fill="white"/>
<path d="M74.2774 217.725C73.4825 217.725 73.481 218.961 74.2774 218.961C75.0719 218.961 75.0738 217.725 74.2774 217.725Z" fill="white"/>
<path d="M88.8026 255.075C88.2403 255.075 88.2394 255.949 88.8026 255.949C89.3649 255.949 89.3654 255.075 88.8026 255.075Z" fill="white"/>
<path d="M74.0529 196.144C73.4906 196.144 73.4897 197.018 74.0529 197.018C74.6152 197.018 74.6157 196.144 74.0529 196.144Z" fill="white"/>
<path d="M78.5041 240.835C76.9804 240.835 76.977 243.203 78.5041 243.203C80.0278 243.203 80.0302 240.835 78.5041 240.835Z" fill="white"/>
<path d="M79.6478 192.126C78.1241 192.126 78.1217 194.494 79.6478 194.494C81.1716 194.494 81.1744 192.126 79.6478 192.126Z" fill="white"/>
</svg>
